<svg width="143" height="20" viewBox="0 0 143 20" fill="none" xmlns="http://www.w3.org/2000/svg">
    <g clip-path="url(#clip0_845_61647)">
        <path d="M35.2698 6.08839C31.4282 6.083 28.3113 9.19722 28.3086 13.0415C28.3059 16.8885 31.4201 20.0054 35.2617 20.0081C39.1033 20.0081 42.2175 16.8912 42.2175 13.0469C42.2175 9.2053 39.1087 6.09108 35.2698 6.08839ZM35.2698 16.1126C33.578 16.1019 32.2148 14.7199 32.2229 13.0253C32.231 11.3335 33.6076 9.965 35.2994 9.9677C36.9912 9.97308 38.3625 11.347 38.3625 13.0415C38.3625 13.8578 38.0365 14.6444 37.4546 15.2209C36.8754 15.7974 36.0888 16.118 35.2698 16.1126Z" fill="#EC111A" />
        <path d="M51.0776 6.417H49.181V2.31409H45.0216V6.417H43.125V10.1859H45.0216V19.6686H49.181V10.1859H51.0776V6.417Z" fill="#EC111A" />
        <path d="M52.9795 6.41699H57.1336V19.6632H52.9795V6.41699Z" fill="#EC111A" />
        <path d="M55.059 9.62483e-06C54.1215 -0.00268434 53.2729 0.560354 52.9119 1.42781C52.5509 2.29257 52.7476 3.29204 53.4103 3.95744C54.073 4.62285 55.0725 4.82221 55.9372 4.46391C56.8047 4.10561 57.3704 3.25971 57.3704 2.31951C57.3704 1.04257 56.3386 0.00270359 55.059 9.62483e-06Z" fill="#EC111A" />
        <path d="M114.634 9.98919C115.997 9.99457 117.101 11.0991 117.104 12.4649V19.6848H121.258V11.9504C121.258 8.43477 119.227 6.1449 116.016 6.1449C114.695 6.1449 113.305 6.72141 112.16 8.57755V6.46817H108.001V19.6848H112.125V12.4649C112.125 11.8022 112.392 11.1691 112.864 10.7031C113.335 10.2397 113.971 9.9811 114.634 9.98919Z" fill="#EC111A" />
        <path d="M136.396 19.6686L131.296 13.0468L136.037 6.41697H131.183L127.368 11.7833V0.331299H123.217V19.6686H127.368V14.2079L131.555 19.6686H136.396Z" fill="#EC111A" />
        <path d="M14.0276 16.0991C14.3455 15.3259 14.4991 14.4935 14.4775 13.6584C14.5071 12.4299 14.0842 11.2311 13.2895 10.2909C12.4032 9.3157 10.8864 8.50482 8.78516 7.8879C8.37837 7.78284 7.98235 7.64006 7.59981 7.46495C7.26845 7.30331 6.97212 7.08241 6.72158 6.81301C6.46026 6.51668 6.32287 6.13144 6.34173 5.73543C6.34981 5.15892 6.67309 4.6309 7.18494 4.3642C8.23289 3.90353 9.42632 3.90353 10.4716 4.3642C10.9376 4.53392 11.3848 4.74405 11.8132 4.99189L13.5777 1.47627C12.7884 0.988658 11.9398 0.614197 11.0481 0.35827C10.1294 0.121201 9.18656 -2.73279e-05 8.23828 -2.73279e-05C7.3358 -0.0161911 6.43871 0.131977 5.59011 0.436395C4.8358 0.730038 4.14884 1.17993 3.57503 1.75105C2.99852 2.32756 2.54054 3.01452 2.23343 3.76883C1.92901 4.54469 1.77815 5.37443 1.78354 6.20687C1.83203 7.53769 2.39507 8.79577 3.34873 9.72249C4.25929 10.5199 5.3261 11.118 6.48182 11.4736C7.03138 11.6837 7.64022 11.8723 8.02815 12.0204C8.42686 12.1713 8.8094 12.3626 9.165 12.597C9.42093 12.7801 9.62837 13.0199 9.77115 13.3001C9.89507 13.5668 9.94087 13.8604 9.90315 14.1514C9.86274 14.5932 9.64992 15.0027 9.31317 15.2909C8.76091 15.6923 8.08203 15.8782 7.40315 15.8162C6.60035 15.7947 5.81102 15.6061 5.08365 15.2613C4.44787 14.9569 3.83095 14.6147 3.23559 14.2349L1.12891 17.8556C2.79108 19.2214 4.86813 19.9784 7.01522 20C8.07934 20 9.13807 19.8329 10.1483 19.5016C11.0185 19.2106 11.8239 18.7607 12.5244 18.1735C13.1655 17.5943 13.6774 16.8884 14.0276 16.0991Z" fill="#EC111A" />
        <path d="M139.327 15.0376C138.387 15.0322 137.538 15.5926 137.174 16.4574C136.811 17.3221 137.005 18.3216 137.665 18.9897C138.325 19.6578 139.321 19.8598 140.192 19.5042C141.059 19.1459 141.627 18.3027 141.63 17.3625C141.633 16.0856 140.604 15.0457 139.327 15.0376ZM139.327 19.2052C138.575 19.2079 137.896 18.758 137.608 18.0657C137.317 17.3706 137.476 16.5732 138.004 16.0398C138.535 15.5064 139.332 15.3474 140.027 15.6357C140.72 15.9213 141.172 16.5974 141.172 17.3491C141.175 17.8421 140.981 18.3135 140.633 18.661C140.289 19.0085 139.817 19.2052 139.327 19.2052Z" fill="#EC111A" />
        <path d="M139.319 17.7371H138.947V18.6153H138.497V16.0857H139.459C139.925 16.0857 140.302 16.4628 140.302 16.9289C140.294 17.2468 140.105 17.5324 139.817 17.6671L140.351 18.6153H139.804L139.319 17.7371ZM138.947 17.3141H139.48C139.693 17.3141 139.866 17.1417 139.866 16.9289C139.866 16.7134 139.693 16.541 139.48 16.541H138.947V17.3141Z" fill="#EC111A" />
        <path d="M25.4013 14.9677C24.3426 16.2877 22.4164 16.5006 21.0964 15.4445C19.7763 14.3858 19.5608 12.4569 20.6169 11.1369C21.6756 9.81414 23.6018 9.60132 24.9218 10.6574C25.0969 10.7974 25.2586 10.9564 25.4013 11.1288L28.1465 8.37287C26.8345 6.92352 24.9676 6.09916 23.0118 6.10186C19.1837 6.08839 15.8809 8.82276 15.8809 13.0415C15.8809 17.2576 19.2187 20 23.0468 20C25.0053 20 26.8722 19.173 28.1896 17.7236L25.4013 14.9677Z" fill="#EC111A" />
        <path d="M73.3806 19.6847V6.41696H69.3343V7.82321L68.9544 7.49455C68.0116 6.58938 66.7508 6.08291 65.4442 6.0883C61.8666 6.0883 58.8467 9.27257 58.8467 13.0414C58.8467 16.8076 61.8747 19.9999 65.4442 19.9999C66.7508 20.0026 68.0116 19.4989 68.9544 18.5937L69.3343 18.2623V19.6686L73.3806 19.6847ZM66.1177 16.1691C64.3882 16.1583 62.9954 14.7467 63.0062 13.0172C63.0142 11.2877 64.4205 9.89218 66.15 9.89757C67.8795 9.90565 69.275 11.3119 69.2723 13.0414C69.2696 13.8739 68.9356 14.674 68.3429 15.2613C67.7529 15.8485 66.9501 16.1745 66.1177 16.1691Z" fill="#EC111A" />
        <path d="M106.013 19.6848V6.41705H101.967V7.8233L101.587 7.49464C100.642 6.58947 99.3836 6.0857 98.0743 6.08839C94.4994 6.08839 91.4795 9.27266 91.4795 13.0415C91.4795 16.8077 94.5075 20 98.0743 20C99.3836 20.0027 100.642 19.499 101.587 18.5938L101.967 18.2624V19.6687L106.013 19.6848ZM98.7774 16.1692C97.0452 16.1719 95.639 14.771 95.6363 13.0388C95.6336 11.3066 97.0371 9.90035 98.7694 9.89766C100.499 9.89766 101.902 11.3012 101.902 13.0334C101.902 14.763 100.504 16.1638 98.7774 16.1692Z" fill="#EC111A" />
        <path d="M79.5857 19.6847V18.2785L79.9574 18.6072C80.903 19.5123 82.1611 20.0161 83.4704 20.0134C87.0453 20.0134 90.0652 16.8291 90.0652 13.0549C90.0652 9.28065 87.0453 6.10177 83.4704 6.10177C82.1611 6.09908 80.903 6.60285 79.9574 7.50802L79.5857 7.83938V0.331299H75.5312V19.6847H79.5857ZM79.6692 13.0549C79.6611 11.7833 80.4181 10.6357 81.59 10.1427C82.7592 9.64973 84.1088 9.91373 85.0113 10.8081C85.9111 11.7025 86.1832 13.0549 85.6983 14.2295C85.2161 15.4013 84.0711 16.1691 82.8023 16.1691C81.0754 16.1691 79.6746 14.7683 79.6692 13.0414V13.0549Z" fill="#EC111A" />
    </g>
    <defs>
        <clipPath id="clip0_845_61647">
            <rect width="142.759" height="20" fill="white" />
        </clipPath>
    </defs>
</svg>
    