<svg width="75" height="20" viewBox="0 0 75 20" fill="none" xmlns="http://www.w3.org/2000/svg">
    <g clip-path="url(#clip0_846_61571)">
        <path fill-rule="evenodd" clip-rule="evenodd" d="M12.5495 9.86391C12.5619 9.90104 12.5866 9.90104 12.6114 9.92579C13.5891 10.4703 14.1584 11.3119 14.4183 12.3763C14.6163 13.2302 14.6411 14.0966 14.604 14.9629C14.5792 15.5075 14.505 16.052 14.3688 16.5842C13.9851 18.0075 13.0817 18.9481 11.6832 19.4184C11.0767 19.6288 10.4455 19.7402 9.80198 19.802C9.20792 19.8639 8.61386 19.8639 8.00743 19.8639C5.95297 19.8639 3.89851 19.8639 1.85644 19.8639C1.57178 19.8639 1.28713 19.8515 1.00248 19.802C0.915842 19.7897 0.829208 19.7649 0.742574 19.7278C0.445545 19.6288 0.259901 19.4307 0.148515 19.1461C0.049505 18.8738 0.0371287 18.6015 0.0123762 18.3169C0.0123762 18.2303 0.0123762 18.1312 0.0123762 18.0446C0 12.8713 0 7.69807 0 2.5248C0 2.24015 0.0123762 1.96787 0.0618812 1.68321C0.0742574 1.5842 0.111386 1.49757 0.136139 1.39856C0.247525 1.11391 0.445545 0.928264 0.730198 0.829254C0.977723 0.74262 1.25 0.717868 1.5099 0.705491C1.64604 0.693115 1.7698 0.693115 1.90594 0.693115C3.92327 0.693115 5.94059 0.693115 7.95792 0.693115C8.84901 0.693115 9.72772 0.767373 10.5941 0.977769C10.9282 1.05203 11.25 1.16341 11.5594 1.28717C12.797 1.80698 13.5767 2.72282 13.9109 4.00995C14.1337 4.86391 14.1584 5.73025 14.0965 6.59658C14.0718 7.07926 13.9851 7.54955 13.8366 8.01985C13.6139 8.7253 13.2178 9.31936 12.6361 9.78965C12.599 9.81441 12.5619 9.82678 12.5495 9.86391ZM6.5099 11.708C5.7302 11.708 4.96287 11.708 4.18317 11.708C4.03465 11.708 4.03465 11.708 4.03465 11.8565C4.03465 11.8689 4.03465 11.8936 4.03465 11.906C4.03465 13.3788 4.03465 14.8515 4.03465 16.3243C4.03465 16.3614 4.03465 16.3986 4.03465 16.4233C4.03465 16.4852 4.05941 16.5223 4.12129 16.5223C4.17079 16.5223 4.20792 16.5223 4.25743 16.5223C5.55693 16.5223 6.85644 16.5223 8.15594 16.5223C8.39109 16.5223 8.61386 16.51 8.84901 16.4976C9.09653 16.4728 9.34406 16.4357 9.59158 16.3491C9.97525 16.2129 10.2351 15.953 10.3589 15.557C10.4084 15.4085 10.4455 15.26 10.4579 15.0991C10.5322 14.5298 10.5198 13.9481 10.4827 13.3788C10.4703 13.2055 10.4455 13.0199 10.4084 12.8466C10.2847 12.302 9.96287 11.9679 9.41832 11.8441C9.05941 11.7575 8.68812 11.7327 8.32921 11.7203C7.7104 11.6956 7.10396 11.708 6.5099 11.708ZM6.22525 4.04708C5.53218 4.04708 4.85148 4.04708 4.15842 4.04708C4.02228 4.04708 4.02228 4.04708 4.02228 4.18322C4.02228 4.34411 4.02228 4.51737 4.02228 4.67827C4.02228 5.84163 4.02228 7.01738 4.02228 8.18074C4.02228 8.35401 4.02228 8.35401 4.15842 8.35401C5.42079 8.35401 6.67079 8.35401 7.93317 8.35401C8.30446 8.35401 8.66337 8.31688 9.02228 8.2055C9.50495 8.05698 9.7896 7.74757 9.90099 7.2649C10.0124 6.75747 10.0124 6.25005 9.98762 5.74262C9.97525 5.51985 9.9505 5.30945 9.90099 5.09906C9.80198 4.71539 9.57921 4.44312 9.20792 4.2946C9.10891 4.25747 9.0099 4.22034 8.91089 4.19559C8.56436 4.09658 8.20545 4.07183 7.84653 4.07183C7.31436 4.04708 6.7698 4.04708 6.22525 4.04708Z" fill="#0A83BA" />
        <path fill-rule="evenodd" clip-rule="evenodd" d="M56.4235 9.86392C56.4606 9.88867 56.4854 9.90105 56.5102 9.9258C57.4508 10.4456 58.0201 11.2624 58.2923 12.2897C58.4408 12.8837 58.5027 13.4902 58.5151 14.0966C58.5275 14.7897 58.5027 15.4827 58.3666 16.1758C58.2305 16.8194 58.0201 17.4258 57.6364 17.958C57.1661 18.6263 56.5225 19.0595 55.7676 19.3441C55.2106 19.5545 54.629 19.6783 54.0349 19.7649C53.379 19.8515 52.723 19.8763 52.0547 19.8639C49.9507 19.8639 47.8592 19.8639 45.7552 19.8639C45.4829 19.8639 45.2106 19.8515 44.9507 19.802C44.3072 19.6907 44.0349 19.3936 43.9483 18.7501C43.9235 18.5273 43.9111 18.3169 43.9111 18.0941C43.9111 12.8837 43.9111 7.67333 43.9111 2.45056C43.9111 2.1659 43.9235 1.89362 43.9854 1.60897C44.0844 1.1263 44.3691 0.841645 44.8517 0.742635C45.124 0.69313 45.3963 0.668377 45.6686 0.668377C47.8715 0.668377 50.0745 0.656001 52.2775 0.680753C53.1933 0.69313 54.0968 0.804516 54.9755 1.08917C55.5943 1.28719 56.1636 1.57184 56.6463 2.01739C57.2527 2.56194 57.6116 3.25501 57.8097 4.03471C57.9953 4.80204 58.0448 5.58174 58.0077 6.36145C57.9829 6.86887 57.921 7.36392 57.7849 7.85897C57.5621 8.63867 57.1537 9.29461 56.5102 9.80204C56.473 9.82679 56.4606 9.83917 56.4235 9.86392ZM50.3963 11.708C49.6166 11.708 48.8493 11.708 48.0696 11.708C47.921 11.708 47.921 11.708 47.921 11.8565C47.921 11.8689 47.921 11.8936 47.921 11.906C47.921 13.3788 47.921 14.8515 47.921 16.3243C47.921 16.3614 47.921 16.3986 47.921 16.4233C47.921 16.4852 47.9458 16.5223 48.0077 16.5223C48.0572 16.5223 48.0943 16.5223 48.1438 16.5223C49.4309 16.5223 50.7304 16.5223 52.0176 16.5223C52.2527 16.5223 52.4879 16.51 52.723 16.4976C52.9829 16.4728 53.2428 16.4357 53.5027 16.3367C53.874 16.2006 54.1215 15.9407 54.2453 15.5694C54.2824 15.4704 54.3072 15.359 54.3319 15.2476C54.4186 14.8144 54.4062 14.3812 54.4062 13.9481C54.4062 13.5768 54.3814 13.2055 54.3072 12.8342C54.1834 12.302 53.8616 11.9679 53.3295 11.8441C52.9705 11.7575 52.5993 11.7327 52.2404 11.7204C51.6092 11.6956 51.0027 11.708 50.3963 11.708ZM50.1364 4.04709C49.4433 4.04709 48.7626 4.04709 48.0696 4.04709C47.921 4.04709 47.921 4.04709 47.921 4.18323C47.921 5.53224 47.921 6.86887 47.921 8.21788C47.921 8.35402 47.921 8.35402 48.0572 8.35402C49.3196 8.35402 50.5819 8.35402 51.8443 8.35402C52.1908 8.35402 52.5374 8.31689 52.8839 8.21788C53.379 8.08174 53.6884 7.77234 53.7998 7.26491C53.8245 7.17828 53.8369 7.07927 53.8493 6.99263C53.9111 6.52234 53.8988 6.05204 53.874 5.58174C53.8616 5.3961 53.8369 5.21046 53.775 5.02481C53.6636 4.67828 53.4532 4.41838 53.1067 4.28224C53.0077 4.24511 52.9087 4.20798 52.8097 4.18323C52.4631 4.08422 52.1042 4.05947 51.7577 4.05947C51.2131 4.04709 50.6686 4.04709 50.1364 4.04709Z" fill="#0A83BA" />
        <path fill-rule="evenodd" clip-rule="evenodd" d="M24.5171 18.8366C23.9354 19.0842 23.3661 19.3193 22.7844 19.5049C21.9799 19.7648 21.1631 19.9505 20.3215 20C19.8512 20.0248 19.3809 20 18.9106 19.901C17.9329 19.6782 17.2522 19.0965 16.8314 18.1931C16.5715 17.6485 16.423 17.0668 16.3116 16.4604C16.1383 15.4579 16.0888 14.4554 16.0764 13.4406C16.0641 12.6485 16.0764 11.8564 16.1507 11.0644C16.225 10.1609 16.3487 9.25743 16.6581 8.40347C16.7571 8.13119 16.8809 7.85892 17.0418 7.61139C17.4997 6.85644 18.168 6.42327 19.022 6.25001C19.6779 6.12624 20.3215 6.13862 20.9774 6.23763C22.1408 6.39852 23.2299 6.79456 24.3067 7.22773C24.3562 7.25248 24.418 7.26486 24.4675 7.28961C24.4799 7.28961 24.4923 7.28961 24.5171 7.30199C24.5294 7.2401 24.5542 7.1906 24.5666 7.12872C24.6656 6.73268 24.9131 6.48515 25.3091 6.38614C25.5072 6.33664 25.7052 6.31189 25.9032 6.29951C26.3611 6.27476 26.8067 6.27476 27.2646 6.34902C27.3512 6.36139 27.4378 6.38614 27.5121 6.4109C27.8463 6.50991 28.0567 6.73268 28.1557 7.06684C28.2176 7.27723 28.2423 7.50001 28.2547 7.7104C28.2671 7.85892 28.2671 8.00743 28.2671 8.15595C28.2671 11.4233 28.2671 14.703 28.2671 17.9703C28.2671 18.2797 28.2547 18.5891 28.1928 18.8985C28.0938 19.3812 27.8091 19.6658 27.3265 19.7648C27.0789 19.8144 26.8314 19.8391 26.5715 19.8391C26.1878 19.8391 25.8166 19.8515 25.4329 19.7648C25.3463 19.7525 25.2596 19.7277 25.1854 19.6906C24.8883 19.5916 24.6903 19.3812 24.5913 19.0842C24.5666 19.0099 24.5418 18.9356 24.5171 18.8366ZM24.4552 13.0941C24.4552 12.2772 24.4552 11.448 24.4552 10.6312C24.4552 10.5446 24.4428 10.4827 24.3438 10.4455C23.6631 10.1485 22.9824 9.85149 22.2769 9.64109C21.8067 9.50495 21.3364 9.39357 20.8413 9.41832C20.6062 9.4307 20.4205 9.52971 20.2967 9.72773C20.1977 9.87624 20.1482 10.0495 20.0987 10.2228C19.9997 10.5941 19.9502 10.9653 19.9255 11.349C19.8512 12.6114 19.8388 13.8738 19.9502 15.1361C19.9873 15.4827 20.0368 15.8292 20.1606 16.1634C20.3215 16.5965 20.5319 16.745 20.9898 16.7203C21.324 16.7079 21.6458 16.6584 21.9552 16.5718C22.7596 16.3614 23.5146 16.052 24.2819 15.7302C24.3933 15.6807 24.4304 15.6312 24.4304 15.5074C24.4552 14.703 24.4552 13.8985 24.4552 13.0941Z" fill="#0A83BA" />
        <path fill-rule="evenodd" clip-rule="evenodd" d="M33.8239 7.30205C34.2323 7.12878 34.6531 6.96789 35.0739 6.807C35.8165 6.5471 36.559 6.32433 37.3387 6.22532C38.0318 6.13868 38.7125 6.11393 39.3932 6.26245C40.1729 6.43571 40.767 6.86888 41.2001 7.5372C41.5219 8.03225 41.7075 8.58918 41.8684 9.15849C42.0665 9.86393 42.1036 10.5818 42.1036 11.312C42.116 13.6016 42.1036 15.9035 42.1036 18.1931C42.1036 18.4654 42.0788 18.7377 42.017 19.01C41.9179 19.406 41.6704 19.6535 41.2868 19.7525C41.1135 19.8021 40.9278 19.8268 40.7422 19.8392C40.2348 19.8639 39.7274 19.8763 39.2323 19.7897C39.1209 19.7649 39.0219 19.7402 38.9229 19.703C38.663 19.604 38.4774 19.4184 38.3907 19.1585C38.3165 18.9481 38.2793 18.7377 38.267 18.5149C38.2546 18.354 38.2546 18.1931 38.2546 18.0323C38.2546 15.7426 38.2546 13.453 38.2546 11.1634C38.2546 10.8045 38.2298 10.4456 38.1556 10.0991C38.1308 10.0001 38.1061 9.91344 38.0689 9.8268C37.9328 9.54215 37.7224 9.40601 37.4006 9.40601C36.9427 9.40601 36.4972 9.50502 36.064 9.62878C35.3462 9.83918 34.6531 10.1362 33.96 10.4456C33.8858 10.4827 33.8486 10.5199 33.861 10.5941C33.861 10.6313 33.861 10.6684 33.861 10.7179C33.861 13.1436 33.861 15.5694 33.861 17.9951C33.861 18.3169 33.861 18.6387 33.7868 18.9605C33.6877 19.3936 33.4402 19.6783 33.0071 19.7773C32.8462 19.8144 32.6853 19.8392 32.5368 19.8516C32.0417 19.8763 31.5467 19.8887 31.064 19.8021C30.9773 19.7897 30.8907 19.7649 30.8041 19.7278C30.5194 19.6288 30.3214 19.4184 30.2224 19.1337C30.1605 18.9481 30.1234 18.7377 30.111 18.5397C30.0986 18.3169 30.0986 18.1065 30.0986 17.8837C30.0986 14.6659 30.0986 11.4605 30.0986 8.24264C30.0986 7.88373 30.0986 7.52482 30.1729 7.16591C30.2719 6.73274 30.5318 6.47284 30.965 6.37383C31.4353 6.27482 31.9179 6.27482 32.4006 6.29958C32.611 6.31195 32.8214 6.3367 33.0318 6.38621C33.4402 6.48522 33.6877 6.74512 33.7991 7.14116C33.8115 7.19066 33.8239 7.22779 33.8363 7.2773C33.7991 7.2773 33.8115 7.28967 33.8239 7.30205Z" fill="#0A83BA" />
        <path fill-rule="evenodd" clip-rule="evenodd" d="M70.5079 14.0471C70.5079 15.4209 70.5079 16.7823 70.5079 18.156C70.5079 18.3788 70.4955 18.5892 70.4707 18.812C70.3841 19.406 70.1242 19.7031 69.5425 19.8144C68.9361 19.9258 68.3173 19.9258 67.7108 19.8268C67.092 19.7154 66.8321 19.4184 66.7455 18.7872C66.7207 18.5644 66.7083 18.3417 66.7083 18.1189C66.7083 15.2971 66.7083 12.4877 66.7083 9.66593C66.7083 9.41841 66.7455 9.43078 66.4856 9.43078C66.2381 9.43078 65.9781 9.40603 65.7306 9.35652C65.2727 9.26989 64.9881 8.99761 64.8767 8.53969C64.7777 8.10652 64.7777 7.66098 64.8643 7.22781C64.9757 6.70801 65.2603 6.44811 65.8049 6.36148C66.0648 6.32435 66.3247 6.31197 66.5722 6.31197C66.7083 6.31197 66.7083 6.31197 66.7083 6.17583C66.7331 5.58177 66.7578 4.98771 66.8445 4.39365C66.9187 3.77484 67.0425 3.16841 67.2529 2.58672C67.5004 1.90603 67.9583 1.43573 68.6143 1.15108C69.1341 0.928308 69.6663 0.792169 70.2232 0.742664C70.9163 0.680783 71.597 0.693159 72.29 0.717912C72.5747 0.730288 72.847 0.767417 73.1192 0.841674C73.8618 1.03969 74.2083 1.47286 74.2455 2.24019C74.2579 2.43821 74.2455 2.63623 74.2083 2.82187C74.097 3.3293 73.7999 3.68821 73.3173 3.88623C72.9088 4.0595 72.488 4.109 72.0549 4.12138C71.795 4.12138 71.5351 4.109 71.2876 4.15851C70.8296 4.24514 70.6069 4.46791 70.545 4.93821C70.4831 5.37138 70.5202 5.80454 70.5202 6.22534C70.5202 6.27484 70.545 6.31197 70.5945 6.31197C70.644 6.31197 70.6811 6.31197 70.7306 6.31197C71.2257 6.31197 71.7331 6.31197 72.2281 6.33672C72.4138 6.3491 72.5994 6.37385 72.7727 6.42336C73.1316 6.52237 73.3668 6.75751 73.4658 7.11643C73.5648 7.48771 73.5772 7.859 73.54 8.24266C73.5277 8.39118 73.5029 8.52732 73.4534 8.66346C73.342 9.00999 73.1192 9.23276 72.7727 9.33177C72.5499 9.39365 72.3148 9.43078 72.0796 9.43078C71.597 9.44316 71.1267 9.43078 70.644 9.44316C70.4831 9.44316 70.4831 9.44316 70.4831 9.60405C70.5078 11.0768 70.5079 12.562 70.5079 14.0471Z" fill="#0A83BA" />
        <path fill-rule="evenodd" clip-rule="evenodd" d="M63.7875 13.0817C63.7875 14.7648 63.7875 16.4356 63.7875 18.1188C63.7875 18.4158 63.7751 18.7005 63.7132 18.9975C63.6142 19.4183 63.3667 19.6782 62.9459 19.7896C62.785 19.8267 62.6241 19.8515 62.4508 19.8639C61.9558 19.901 61.4484 19.901 60.9533 19.8144C60.8419 19.7896 60.7429 19.7648 60.6439 19.7277C60.3964 19.6287 60.2231 19.4431 60.1241 19.1832C60.0375 18.9356 60.0003 18.6757 59.988 18.4282C59.9756 18.2921 59.9756 18.1559 59.9756 18.0198C59.9756 14.7525 59.9756 11.4851 59.9756 8.20544C59.9756 7.88366 59.988 7.57425 60.0375 7.26485C60.1241 6.79455 60.3964 6.49752 60.879 6.39851C61.0523 6.36138 61.2256 6.33663 61.4112 6.32425C61.8692 6.2995 62.3271 6.2995 62.785 6.37376C62.8716 6.38613 62.9583 6.41089 63.0573 6.43564C63.379 6.53465 63.5771 6.75742 63.6761 7.06683C63.7751 7.38861 63.7875 7.72277 63.7875 8.05693C63.7875 9.71534 63.7875 11.3985 63.7875 13.0817Z" fill="#0A83BA" />
        <path fill-rule="evenodd" clip-rule="evenodd" d="M59.3563 2.48767C59.3192 1.17579 60.532 -0.210348 62.1657 0.0248008C62.735 0.111434 63.2424 0.32183 63.6508 0.730246C64.0345 1.11391 64.2696 1.58421 64.3562 2.11638C64.5048 3.05698 64.2696 3.91094 63.6137 4.61638C63.1434 5.12381 62.5617 5.40846 61.8686 5.44559C61.2498 5.47035 60.73 5.21044 60.2969 4.77728C59.8018 4.25747 59.5172 3.63866 59.3934 2.93322C59.3687 2.77233 59.3563 2.62381 59.3563 2.48767ZM60.3216 2.33916C60.3216 2.77233 60.5073 3.23025 60.8167 3.5149C61.1013 3.7748 61.4231 3.86143 61.7944 3.75005C62.6855 3.47777 62.9701 2.4753 62.5988 1.78223C62.3389 1.31193 61.7573 1.0644 61.2251 1.20054C60.6929 1.33668 60.3216 1.80698 60.3216 2.33916Z" fill="#BDCD0D" />
        <path fill-rule="evenodd" clip-rule="evenodd" d="M60.3223 2.33917C60.3223 1.807 60.6936 1.32432 61.2257 1.18818C61.7579 1.05205 62.3396 1.29957 62.5995 1.76987C62.9831 2.46294 62.6861 3.46541 61.795 3.73769C61.4237 3.84908 61.102 3.76244 60.8173 3.50254C60.5079 3.23026 60.3223 2.78472 60.3223 2.33917Z" fill="#0A83BA" />
    </g>
    <defs>
        <clipPath id="clip0_846_61571">
            <rect width="74.2574" height="20" fill="white" />
        </clipPath>
    </defs>
</svg>
    