<svg width="90" height="20" viewBox="0 0 90 20" fill="none" xmlns="http://www.w3.org/2000/svg">
    <path fill-rule="evenodd" clip-rule="evenodd" d="M85.5126 14.6893C85.8461 14.6515 85.721 14.6515 85.8878 14.6137L85.9711 14.7649C86.0545 14.8783 86.0128 14.8405 86.0128 14.9539C85.8461 14.9161 85.721 14.7649 85.5126 14.6893ZM87.0549 14.2734C87.0966 14.16 87.0965 14.1978 87.0965 14.0844L87.4717 14.1222C87.43 14.2734 87.3883 14.2734 87.0549 14.2734ZM85.5126 14.6893H85.3876C85.4709 14.8027 85.4709 14.7271 85.3876 14.8405C85.3042 14.7649 85.3042 14.7649 85.2209 14.7271V15.1808C84.9708 15.1808 85.1792 15.0674 85.0124 15.2564L84.9708 15.1052C84.7207 15.143 84.7623 15.143 84.5122 15.1052V15.3699C84.4706 15.332 84.4706 15.2942 84.4289 15.2564C84.3038 15.143 84.2205 15.2186 84.2621 14.9539C84.2205 14.9539 84.0955 14.9918 84.0538 14.9918C83.9287 15.0296 83.8454 15.1052 83.762 15.1808C83.7203 15.2564 83.7203 15.2942 83.6786 15.332L83.3451 15.2564L83.2618 15.0296C82.6366 15.0296 82.8449 14.8405 82.2614 15.0674C81.6778 15.2564 81.7612 15.2186 81.3027 15.2186C81.5111 15.4454 81.3444 15.7857 80.8442 15.5967C80.7608 15.5589 80.5524 15.4076 80.469 15.3699C80.3023 15.2564 80.2189 15.332 80.0106 15.3699L80.0523 15.1052C79.7188 15.1052 79.7188 15.0674 79.5104 14.9539C79.5937 14.8783 79.7605 14.7649 79.8022 14.6515C79.8438 14.4246 79.5104 14.5381 79.427 14.6137C79.3853 14.7649 79.427 14.6137 79.5104 14.7649C79.2186 15.0674 79.1769 15.1052 78.7601 14.8405C78.5517 14.7271 78.4266 14.8027 78.3016 14.7271C78.2182 14.6893 78.1348 14.5381 78.0098 14.4624C77.9681 14.4246 77.9264 14.3868 77.843 14.3491C77.6763 14.1978 77.5513 14.0466 77.2595 14.0844C77.0928 14.0844 77.1761 14.1222 77.0511 14.16C76.7593 14.1978 76.7593 14.0466 76.4258 14.3112C76.1341 14.5003 76.1758 14.5759 75.7173 14.7271C75.4255 14.8406 75.2171 14.9918 75.1754 15.2942C75.1754 15.4833 75.092 15.6345 75.1337 15.7479C75.2587 15.9369 75.2587 15.7857 75.3004 16.1638L75.4672 16.9955C76.0507 17.2224 75.6339 17.3736 75.8423 17.6005C75.9674 17.7139 76.3008 17.487 76.7593 17.9029C76.9677 18.0542 77.0511 18.0542 77.1762 18.1298C77.3012 18.2432 77.2595 18.3188 77.4679 18.47C77.9264 18.3944 77.8847 18.281 78.3849 18.5457C78.5517 18.5835 78.51 18.6213 78.6351 18.6969C78.9268 18.7725 79.7188 18.47 80.344 18.8859C80.5524 19.0371 80.6358 18.9993 80.9276 18.9993H89.1807V0.246948H60.7949V18.9993H68.2144C68.5062 18.9993 68.5062 18.8859 68.7146 18.7725C69.2148 18.5456 70.4653 18.8103 70.7154 18.6213C70.7988 18.5078 70.7154 18.5078 70.9238 18.47C71.6741 18.281 71.5907 18.47 71.8408 18.4322C72.1326 18.3944 72.6327 18.2054 72.8828 18.0542C73.0913 17.9029 73.3414 17.3358 73.3414 17.1467C73.258 16.8065 73.3414 16.7687 73.3414 16.5419C73.3831 16.3906 73.3414 16.126 73.3414 15.9747C73.3831 15.6345 73.5081 15.8614 73.2997 15.4832C72.9245 14.7649 72.5077 14.9161 72.0075 14.6515C71.549 14.4246 71.424 14.4246 70.9238 14.2734C70.2985 14.0844 70.0068 14.16 69.5066 14.4624C69.3815 14.5381 69.3815 14.5003 69.2565 14.5759C69.0897 14.6137 68.8813 14.7649 68.8813 14.9161H69.1314C69.3399 15.5967 68.6729 15.5211 68.2144 15.6345C68.0894 15.6345 68.1311 15.6723 68.006 15.7101C68.006 15.4454 68.1311 15.5589 68.1728 15.2942C67.881 15.2942 67.9226 15.5967 67.6725 15.6723C67.7976 15.8235 67.7559 15.6723 67.8393 15.8235C67.6725 15.9747 67.6725 15.9747 67.4641 16.0126C67.0056 16.0882 67.3391 16.0882 67.214 16.315L66.9223 16.2016C66.8806 16.126 66.8389 16.0504 66.8389 16.0126V15.8991C66.8389 15.6344 66.3387 15.9369 66.297 15.9369C66.0052 16.0882 65.5051 16.0126 65.3383 15.7101C65.2967 15.6345 65.3383 15.7101 65.255 15.6345C65.1716 15.5589 65.0049 15.5211 65.2133 15.4454C65.2967 15.4454 65.3383 15.4454 65.4217 15.4454C65.5884 15.4076 65.4634 15.4833 65.5884 15.4076C65.4634 15.2186 65.4634 15.332 65.255 15.2564C65.0049 15.2186 65.0882 15.1808 64.8798 15.1052C64.7964 15.2186 64.7964 15.2942 64.6297 15.3699C64.8381 15.4833 64.7131 15.6345 64.5463 15.5589C64.3796 15.4832 64.3796 15.4076 64.0462 15.4832C63.7961 15.5211 63.7961 15.4454 63.5877 15.3699C63.2959 15.2186 63.4209 15.2942 63.2959 15.0674C63.2959 15.0674 63.3376 15.0296 63.3376 15.0674L63.5043 14.9539C63.671 14.8027 63.5043 14.7271 63.9628 14.6893C64.0462 14.6893 64.1712 14.6515 64.2546 14.6137C64.0879 14.4625 63.7961 14.5003 63.9211 14.1222C64.1712 14.1222 64.1296 14.2356 64.2129 14.3868C64.5047 14.3112 64.2963 14.1222 64.1296 14.0088C64.1296 13.8576 64.0879 13.8953 64.2129 13.8198C64.0045 13.7819 64.0045 13.7441 63.8378 13.7063C63.7961 13.7063 63.7544 13.7063 63.7127 13.6685V13.6307L63.6293 13.5929C63.546 13.4038 63.5043 13.4038 63.546 13.2148C63.7961 13.1392 63.8795 13.177 63.8795 12.9123C63.5877 12.799 63.6293 12.9502 63.4626 12.8745C63.4209 12.7611 63.4626 12.6855 63.5877 12.6099C63.7544 12.5721 63.8795 12.8368 64.0462 12.7233C64.0879 12.6477 64.0045 12.6099 63.9628 12.4965C63.9211 12.383 64.0462 12.4208 63.8378 12.383C63.7544 12.383 63.7544 12.4208 63.6293 12.383V12.1562C63.4626 12.194 63.5877 12.2318 63.4209 12.2696C63.3376 12.1562 63.2542 12.1562 63.2125 12.0428C63.1291 11.9294 63.1708 11.8538 63.0458 11.7781C63.2125 11.6647 63.4626 11.6647 63.5877 11.5513C63.546 11.5135 63.546 11.5513 63.4626 11.5513C63.2959 11.5513 63.1708 11.3245 63.0458 11.2489L63.1291 10.9842C63.4626 10.9464 63.3792 11.022 63.546 11.1354C63.8795 11.022 63.7961 11.022 63.9211 11.1732C64.1295 11.4 64.0462 11.4379 64.1296 11.4757C64.1712 11.5135 64.1712 11.5135 64.2129 11.4757C64.2546 11.3622 64.2129 11.5135 64.2129 11.3622C64.2129 11.3245 64.1712 11.211 64.2129 11.1732C64.2129 10.8707 64.4213 10.833 64.6297 10.6817C64.7131 10.6061 64.8381 10.3793 64.8381 10.2659C64.8381 10.228 64.6714 10.1524 64.8381 9.92557L65.1716 9.69874C65.255 9.66092 65.2133 9.69874 65.255 9.66092L64.9215 9.16943L65.2133 9.20724C65.2133 9.01822 65.1716 8.98041 65.2967 8.79139L65.1716 8.71576C65.1716 8.71576 65.1716 8.71576 65.1299 8.71576L65.255 8.56455C65.7968 8.64013 65.6301 8.56454 65.6718 8.4511C65.7135 8.41328 65.7135 8.41328 65.7968 8.33771C65.7551 8.14863 65.6301 8.03523 65.5884 7.88397C65.7551 7.88397 65.8385 7.95961 65.9636 8.03524C66.0886 7.80841 66.0052 7.95961 66.0052 7.69495C66.172 7.61932 66.1303 7.65714 66.172 7.46812C66.3387 7.54375 66.3387 7.54375 66.4638 7.43031C66.5471 7.31692 66.5888 7.24127 66.5888 7.05225C66.7556 7.09001 66.6722 7.09002 66.8806 7.09002C67.089 6.63634 66.964 6.86318 67.2974 6.901C67.3808 6.7876 67.3808 6.71198 67.5475 6.67416C67.5475 6.86319 67.5475 6.901 67.3808 6.901C67.4224 7.01444 67.3808 6.93881 67.5058 7.05225C67.4224 7.24127 67.5058 7.01443 67.3808 7.20346L67.5058 7.46812C67.7976 7.2791 68.006 7.16564 68.3811 7.35466L68.2978 7.61933C68.2561 7.84616 68.1311 7.65713 68.2144 7.92179C68.2978 7.80839 68.2978 7.8084 68.4228 7.77058C68.3811 8.03523 68.3811 7.73278 68.2561 7.99743C68.5062 7.95962 69.0481 7.99742 69.2148 7.92179C69.1731 7.73276 68.9647 7.61933 68.798 7.50593C68.8813 7.46812 68.923 7.46812 69.0481 7.46812C69.0064 7.2791 69.0897 7.35468 69.0897 7.2791C69.0481 7.16566 69.0064 7.31691 68.8396 7.16564C68.7563 7.05225 68.6729 6.93881 68.5062 6.901H68.3811C68.4228 6.74979 68.3811 6.82542 68.5062 6.74979C68.4645 6.67416 68.5062 6.74979 68.4645 6.67416C68.3811 6.63635 68.5062 6.59853 68.2978 6.56077C68.2144 6.56077 67.9643 6.59852 67.7976 6.59852C67.7559 6.56076 67.7559 6.48513 67.6725 6.44731C67.5892 6.29611 67.6309 6.44732 67.5475 6.29611C67.6309 6.22048 67.7559 6.22048 67.881 6.22048C67.7976 6.06927 67.881 6.18267 67.8393 6.10704C67.8393 6.03146 67.8393 6.03146 67.7976 5.99365V5.88019C67.7559 5.80461 67.7976 5.88019 67.7142 5.7668C67.881 5.65335 67.881 5.84238 67.881 5.53997C67.7559 5.50215 67.7976 5.53997 67.7976 5.42652C67.881 5.42652 67.881 5.38871 67.9643 5.42652C68.0477 5.42652 68.006 5.42652 68.006 5.46434L68.0477 5.50215C68.2144 5.42652 68.2144 5.46434 68.3811 5.42652C68.5895 5.38871 68.5895 5.3887 68.7563 5.35088C68.7563 5.19967 68.7563 5.23749 68.7146 5.12405C68.5062 5.16186 68.5479 5.2375 68.3394 5.27532C68.3394 4.93503 68.3811 4.97284 68.6312 4.82164C68.6729 4.78382 68.5895 4.746 68.6729 4.67036L68.7563 4.55697L69.0897 4.59474C69.2565 4.63255 69.2148 4.63256 69.2982 4.78382C69.6316 4.67038 69.2982 4.63255 69.4649 4.48135C69.5066 4.40571 69.5066 4.40572 69.6316 4.40572C69.5483 4.29233 69.59 4.40572 69.5483 4.25451C69.6733 4.17888 69.7566 4.2167 69.7983 4.06549C69.6316 3.98986 69.5483 4.06548 69.4649 3.91422L69.3815 3.80083C69.5066 3.76301 69.4232 3.76301 69.59 3.80083C69.5066 3.53618 69.59 3.68739 69.84 3.53618C69.715 3.38492 69.7566 3.46054 69.59 3.3471L69.6733 3.15808C69.715 3.00687 69.6733 3.00688 69.84 2.96906C69.9651 3.15808 69.6733 3.27152 69.9651 3.27152C70.3402 3.2337 70.1318 3.30934 70.3819 3.38491C70.5903 3.2337 70.3402 3.23371 70.6737 3.15808L70.9238 3.08245C71.0071 3.15808 70.9654 3.15808 71.0071 3.19589C71.1322 3.30934 71.0488 3.19589 71.1739 3.27152C71.2989 3.3471 71.1739 3.19589 71.2989 3.38491C71.3823 3.42273 71.3406 3.42274 71.424 3.49837H71.5073C71.5907 3.49837 71.4656 3.46055 71.5907 3.49837C71.7574 3.57395 71.7574 3.61176 71.9242 3.53618C71.9242 3.46055 71.8825 3.49837 71.7991 3.42274L71.8825 3.19589L72.0075 3.27152V3.23371L72.0909 3.19589C72.1326 3.15808 72.1743 3.15808 72.216 3.12027L72.2993 3.23371C72.2576 3.38491 72.1743 3.27153 72.1326 3.42274C72.2993 3.42274 72.5494 3.46056 72.6328 3.42274C72.7578 3.38493 72.6327 3.42273 72.7161 3.3471L72.7995 3.23371C72.8412 3.15808 72.8412 3.12027 72.8412 3.08245C73.0079 3.12027 72.9245 3.15808 73.0913 3.19589C73.258 3.23371 73.2163 3.15808 73.4247 3.23371L73.4664 3.19589C73.5081 3.12026 73.4664 3.12027 73.5498 3.08245L73.8415 3.19589L73.9249 3.3471C73.9249 3.38491 73.9249 3.38491 73.9249 3.38491C74.0916 3.30934 74.0916 3.27152 74.2167 3.38491C74.3417 3.2337 74.3001 3.27152 74.4251 3.19589L74.7169 3.08245L74.8419 3.15808C74.8419 3.15808 74.842 3.15808 74.8836 3.15808C74.8836 3.19589 74.8836 3.19589 74.8836 3.19589L75.092 3.30935C75.0503 3.42274 75.0086 3.64957 74.9253 3.76302C74.7586 3.91422 74.9253 3.87641 75.0503 3.76302C75.092 3.68739 75.2171 3.57394 75.2171 3.80083C75.2171 3.87641 75.2171 3.83859 75.1754 3.95204C75.5505 3.98985 75.3004 3.80083 75.6339 3.76302C75.8006 3.76302 75.5088 3.68739 75.8423 3.68739V3.83859C75.9257 3.76302 76.0091 3.76301 76.1758 3.80083C76.2591 3.83859 76.2174 3.8764 76.2591 3.95204H76.4258C76.4258 3.95204 76.4258 3.95204 76.4675 3.95204L76.5509 3.98987C76.8844 4.02768 76.8427 4.02767 76.8844 3.91422C76.7176 3.98985 76.6343 3.91422 76.6343 3.76302C76.8844 3.68739 76.7176 3.80083 76.8844 3.7252C76.9677 3.68739 76.9677 3.61176 77.0094 3.57395L77.0511 3.49837C77.1761 3.53619 77.0928 3.49837 77.1762 3.57395C77.5096 3.80084 77.5513 4.17888 78.0098 4.2167C78.1348 3.95205 78.0098 3.68738 78.2599 3.95204L78.3016 3.76302C78.3016 3.76302 78.2599 3.76302 78.3016 3.68739C78.3433 3.53618 78.3433 3.61176 78.51 3.64958C78.4683 3.34711 78.635 3.64957 78.7184 3.3471C78.8435 3.46054 78.9685 3.38492 78.8851 3.7252C78.8435 3.80083 78.7601 3.80083 78.8435 3.91422C78.9685 3.83859 78.9268 3.80083 79.0518 3.7252C79.1769 3.80083 79.1769 3.87642 79.2603 3.98987V4.02768L79.3853 3.95204C79.4687 3.8764 79.3853 3.91422 79.5104 3.87641C79.552 3.91422 79.5104 3.8764 79.5104 3.95204C79.552 4.06548 79.5104 4.0655 79.5937 4.14107C79.6354 4.25452 79.5937 4.10325 79.6354 4.25451C79.6354 4.33009 79.5104 4.59473 79.5104 4.67036C79.3853 4.82163 79.3019 4.78382 79.3019 5.01066C79.5104 5.04847 79.427 5.19968 79.7605 4.97284C79.8022 4.97284 79.8022 4.97284 79.8022 4.97284C79.8022 4.97284 79.8021 4.97284 79.8438 4.93503L79.7188 4.89721C79.5937 4.89721 79.7605 4.97285 79.5937 4.89721C79.7188 4.74601 79.8438 4.44353 80.0523 4.40572C80.0523 4.51916 80.0106 4.55699 80.0106 4.7082C80.1356 4.74601 80.0939 4.74601 80.2189 4.74601C80.8025 4.8594 80.4274 4.78382 80.5941 5.08623L80.6775 4.93503C80.7608 4.74601 80.5941 4.8972 80.7192 4.67036C80.7608 4.55697 80.7608 4.59474 80.7608 4.44353C80.8859 4.44353 80.9276 4.44353 81.0943 4.44353C81.136 4.25451 81.1777 4.17889 81.4278 4.17889L81.4695 4.25451L81.5111 4.33009C81.5945 4.48135 81.4278 4.70819 81.3027 4.78382C81.2194 4.8594 81.261 4.70819 81.2194 4.8594C81.5945 4.8594 81.8862 4.78381 81.7612 5.19968C81.7195 5.42651 81.6361 5.35089 81.6778 5.61554C81.8863 5.50215 81.6362 5.53997 81.8863 5.53997C81.8446 5.65336 81.8863 5.69117 81.8446 5.72899C81.8446 5.91801 81.8446 5.72898 81.8029 5.918C82.4281 6.03145 82.3448 6.33387 82.4281 6.37169C82.5115 6.25829 82.4281 6.29612 82.4281 6.14485C82.6366 6.06928 82.5949 6.03145 82.8449 5.88019C82.8866 5.99364 82.8033 6.03145 83.0117 5.95582C83.0117 6.18266 83.095 6.06927 83.0533 6.22048C82.9283 6.2583 82.7616 6.14485 82.8449 6.33387C82.8449 6.37169 82.9283 6.44731 82.97 6.44731C83.1367 6.56076 83.0117 6.3717 83.095 6.56077C83.0117 6.63635 83.0534 6.59852 82.97 6.63633C82.8033 6.63633 83.0117 6.59852 82.8866 6.63633C82.8032 6.63633 82.9283 6.59853 82.8449 6.67416C82.8033 6.67416 82.6366 6.86318 82.5949 6.901C83.1784 6.97663 82.5949 7.12783 82.97 7.20346C83.0534 6.9388 82.8866 7.31691 82.97 7.05225C82.97 6.97662 83.0534 6.97662 83.1367 6.97662C83.2201 7.16565 83.0117 6.97662 83.1784 7.12783C83.3035 7.20346 83.2201 7.12783 83.4285 7.12783L83.6786 7.46812L83.9704 7.2791C84.0121 7.43031 84.0955 7.69495 84.0121 7.77058C83.8037 7.99742 83.6786 7.84616 83.762 8.22426L84.2205 8.33771C84.5122 8.33771 84.4706 8.22426 84.679 8.41328C84.6373 8.64012 84.2205 8.82919 84.0121 8.64012C83.9704 8.6023 84.0955 8.6023 83.9704 8.6023C83.762 8.64012 84.1371 8.82919 84.1371 9.09385C83.9704 9.16942 83.8454 9.3207 83.5952 9.24507C83.4285 9.16944 83.5536 9.28287 83.5119 9.09385C83.3451 9.16942 83.4285 9.28288 83.2618 9.3207C83.2201 9.3207 82.8449 9.28288 82.7616 9.28288C82.8449 9.43409 83.0117 9.35846 83.1784 9.43409C83.2201 9.54754 83.1784 9.58534 83.2618 9.69874C83.3451 9.54753 83.2618 9.62311 83.4285 9.50972C83.5952 9.69874 83.5536 9.58534 83.4702 9.77436C83.7203 9.81218 83.6786 9.73655 83.8037 9.88776C83.9704 9.77436 83.8037 9.77436 84.0538 9.77436C84.0955 9.77436 84.0955 9.77436 84.0955 9.77436H84.2205C84.2621 9.77436 84.3038 9.77437 84.3872 9.73655C84.4289 9.81218 84.3872 9.73655 84.4289 9.81218C84.5956 10.0012 84.7207 10.0768 84.4706 10.3037C84.3872 10.4171 84.3038 10.4171 84.2621 10.5305C84.5956 10.5305 84.2621 10.4549 84.6373 10.4549C84.5956 10.6061 84.6373 10.6061 84.5122 10.6817C84.5956 10.7574 84.5956 10.7195 84.6373 10.7952C84.679 10.7574 84.7623 10.7195 84.8457 10.6817C85.0124 10.6439 84.9291 10.6061 85.0124 10.7574C85.0958 10.6439 85.0125 10.6817 85.1375 10.6061C85.2209 10.7195 85.2209 10.7195 85.1375 10.8707C85.2626 10.8707 85.4292 10.7952 85.5126 10.833C85.6793 10.8707 85.596 10.9086 85.596 11.0598C85.6794 11.0976 85.721 11.1354 85.8044 11.1732C85.7627 11.3622 85.6793 11.4001 85.8044 11.5513L85.596 11.7025C85.6377 11.8915 85.721 12.005 85.8461 12.1184L85.8044 12.4587C85.9711 12.4208 85.8461 12.4208 86.0128 12.383C86.0545 12.4587 86.0545 12.5343 86.0962 12.6099C86.1796 12.5721 86.2212 12.5721 86.3463 12.5343L86.4297 12.4587C86.513 12.4208 86.3463 12.4587 86.5547 12.4208C86.5547 12.5343 86.5547 12.4587 86.513 12.5343C86.4713 12.5721 86.4713 12.5721 86.388 12.5721C86.388 12.5721 86.4713 12.6099 86.4713 12.6477C86.5547 12.7611 86.4297 12.7989 86.4297 12.988C86.388 13.0636 86.4297 13.1014 86.4297 13.2148C86.6798 13.2148 86.8048 13.3283 86.9715 13.4417C87.1799 13.4038 87.0549 13.4038 87.2216 13.366L87.3467 13.5173C87.43 13.3283 87.5134 13.4038 87.5968 13.4417C87.5551 13.4795 87.5134 13.5173 87.4717 13.5173C87.2633 13.6307 87.3883 13.6685 87.3883 13.8576C87.0132 13.971 87.1382 13.8198 87.0549 14.0088C87.0132 14.16 87.1382 14.1222 86.9715 14.1978C86.8881 14.1978 86.7631 14.1978 86.6798 14.1978C86.5964 14.4246 86.5547 14.4246 86.388 14.5003C86.2629 14.5759 86.388 14.5381 86.2212 14.6137C86.0545 14.5381 86.0962 14.5381 85.9711 14.5381C85.8044 14.5759 85.9294 14.5003 85.6793 14.5003C85.5126 14.6515 85.6793 14.6137 85.4709 14.6137L85.5126 14.6893Z" fill="#B1C900" />
    <path fill-rule="evenodd" clip-rule="evenodd" d="M72.2578 13.593L72.4245 13.6686C72.5079 13.7821 72.4662 13.7442 72.4662 13.8954C72.5912 14.2735 73.2165 14.4626 73.5083 14.4626C73.55 13.5174 73.3832 13.6308 72.7997 13.5174C72.5912 13.4796 72.3828 13.5174 72.2578 13.593V13.593Z" fill="#B1C900" />
    <path fill-rule="evenodd" clip-rule="evenodd" d="M75.2165 14.3491C75.3833 14.2734 75.4666 14.2356 75.6334 14.16C75.8418 14.0466 75.9668 13.5929 75.7584 13.366C75.5917 13.2526 75.5083 13.177 75.4249 13.0636C75.1331 13.2148 75.2165 13.2904 75.2999 13.7063C75.3416 14.1222 74.9664 13.971 75.2165 14.3491V14.3491Z" fill="#B1C900" />
    <path fill-rule="evenodd" clip-rule="evenodd" d="M72.174 13.7442C71.9239 13.6685 71.7155 13.7063 71.507 13.5173C71.382 13.4417 71.382 13.4039 71.2569 13.3283C71.0902 13.2149 71.0485 13.2905 70.8818 13.2148C70.9235 13.4039 71.0485 13.4795 71.1319 13.6307C71.2986 13.8576 71.2152 13.8576 71.5487 13.9332C71.9239 14.0088 72.5074 14.3869 72.174 13.7442Z" fill="#B1C900" />
    <path fill-rule="evenodd" clip-rule="evenodd" d="M79.7188 8.56459L79.8022 8.3755C79.5938 8.3755 79.6355 8.41332 79.5104 8.41332C79.1769 8.3755 79.302 8.07308 79.302 7.92182C79.2186 8.03527 79.2186 8.03528 79.0936 8.03528L79.0519 7.88401C79.0519 7.88401 79.0519 7.884 79.0102 7.92182C79.0102 7.92182 79.0102 7.92182 78.9685 7.92182C78.8851 7.95963 78.9685 7.95965 78.8435 7.95965C78.8435 7.92183 78.8435 7.92182 78.8018 7.88401C78.7601 7.77061 78.8435 7.95964 78.8018 7.84619C78.6351 7.88401 78.8018 7.95965 78.5934 7.99746C78.4267 7.99746 78.385 7.92183 78.3433 8.03528C78.2599 8.11085 78.3016 8.03528 78.385 8.07309L78.4267 8.14867C78.5517 8.37551 78.3433 7.99746 78.4684 8.2243L78.8018 8.45113C79.1353 8.60234 79.0102 8.2621 79.4687 8.52676C79.6355 8.56457 79.5938 8.56459 79.7188 8.56459V8.56459Z" fill="#B1C900" />
    <path fill-rule="evenodd" clip-rule="evenodd" d="M71.1328 6.8632C71.2995 7.20348 71.0494 7.20347 71.3829 7.20347C71.5913 7.20347 71.2579 7.16566 71.6747 7.12785C71.8414 7.09003 71.8831 7.12785 72.0082 7.05227C71.9665 6.86319 71.9665 7.05228 71.9665 6.90101C71.9248 6.74981 72.0082 6.78761 71.9248 6.63635C71.8414 6.48514 71.9248 6.71198 71.8414 6.52296C71.9248 6.48514 72.0499 6.52297 72.1749 6.3717H72.1332H71.9665C71.5497 6.44734 71.9248 6.67418 71.3829 6.74981C71.2162 6.74981 71.2995 6.74981 71.1328 6.8632Z" fill="#B1C900" />
    <path fill-rule="evenodd" clip-rule="evenodd" d="M65.0886 13.0636C65.0469 13.4038 64.9219 13.177 64.9219 13.4794C65.3804 13.4794 66.0056 13.366 66.214 13.1391L65.6305 13.0258C65.5471 13.2526 65.3804 13.0636 65.0886 13.0636V13.0636Z" fill="#B1C900" />
    <path fill-rule="evenodd" clip-rule="evenodd" d="M68.1309 9.09394L68.2559 9.20733H68.2976C68.506 9.28296 68.5477 9.35855 68.7144 9.35855C69.0479 8.8293 68.8394 9.20734 68.9228 8.94268C69.0062 8.9805 68.9645 9.01831 69.0479 9.01831C69.3397 9.05612 69.1729 9.01831 69.2146 8.94268C68.8811 8.94268 69.1312 8.82929 68.9228 8.90487C68.7561 8.90487 68.8394 9.01831 68.5893 8.90487C68.4226 8.86705 68.4643 8.79148 68.2976 8.86705C68.2142 8.90487 68.1309 8.94267 68.1309 9.09394V9.09394Z" fill="#B1C900" />
    <path fill-rule="evenodd" clip-rule="evenodd" d="M65.63 14.954C65.9217 15.0296 65.8384 14.954 65.9217 15.1052C65.8384 15.1808 65.755 15.1808 65.63 15.2186C65.5883 15.0674 65.5883 15.143 65.6717 14.9918C65.5049 14.9918 65.4633 14.9918 65.3799 15.0674C65.5466 15.4455 65.755 15.143 66.1718 15.2943C66.1718 15.4077 66.1718 15.3699 66.1302 15.4833L66.547 15.3321C66.547 15.2186 66.5887 15.2186 66.5053 15.143C66.4636 15.0674 66.5053 15.143 66.3803 15.143C66.1718 15.1808 66.1301 15.143 66.2135 14.9918C65.8384 14.9918 66.0885 14.9918 66.0051 14.9162C65.9634 14.9162 65.7967 14.8783 65.755 14.8406L65.63 14.954Z" fill="#B1C900" />
    <path fill-rule="evenodd" clip-rule="evenodd" d="M78.0935 13.177C78.3436 13.0258 78.4686 12.8746 78.6771 12.7612L78.5103 12.6856C78.4686 12.6856 78.4686 12.6856 78.4686 12.6856C78.3853 12.6477 78.4686 12.6856 78.3853 12.6477C78.2602 12.6477 78.1352 12.61 78.0101 12.61C77.8434 12.8368 77.8851 12.8368 78.0935 13.177V13.177Z" fill="#B1C900" />
    <path fill-rule="evenodd" clip-rule="evenodd" d="M77.5928 13.8197C77.8429 13.8197 77.8012 13.7819 78.0513 13.7441C78.2597 13.7063 78.218 13.5929 78.3848 13.4794C78.6766 13.4794 78.5932 13.6306 78.8016 13.5551C78.9683 13.5173 78.8849 13.177 79.3851 13.177C79.3018 13.0636 79.3018 13.1392 78.9266 13.2148C78.3431 13.3282 78.5515 13.4038 77.8012 13.7063C77.7595 13.7441 77.7178 13.7441 77.6761 13.7441C77.6761 13.7819 77.6345 13.7819 77.6345 13.7819L77.5928 13.8197Z" fill="#B1C900" />
    <path fill-rule="evenodd" clip-rule="evenodd" d="M75.5508 12.4209C75.7175 12.2319 75.5925 12.3831 75.8009 12.3831C75.8842 12.3453 75.9676 12.2319 76.0927 12.2319C76.3844 12.1184 76.5928 12.3831 76.5928 11.9672C76.0927 11.8916 76.4261 12.005 76.1344 12.0428C76.0093 12.0428 75.9259 12.0428 75.8009 12.0428C75.6758 12.0807 75.5508 12.2697 75.5508 12.4209V12.4209Z" fill="#B1C900" />
    <path fill-rule="evenodd" clip-rule="evenodd" d="M76.2178 13.8954C76.5096 13.8576 76.7597 13.6307 76.9264 13.5173C76.843 13.3661 76.718 13.4039 76.843 13.2148C76.5513 13.2905 76.2178 13.5551 76.2178 13.8954Z" fill="#B1C900" />
    <path fill-rule="evenodd" clip-rule="evenodd" d="M70.1318 13.2905L70.3403 13.4795V13.5174H70.3819C70.6737 13.7442 71.0488 13.782 70.5904 13.2527C70.4653 13.1771 70.507 13.1392 70.3819 13.1771L70.2152 13.2527C70.1318 13.2905 70.2152 13.2149 70.1318 13.2905V13.2905Z" fill="#B1C900" />
    <path fill-rule="evenodd" clip-rule="evenodd" d="M79.6353 8.86693C79.3436 8.82917 79.3019 8.71573 79.0518 8.86693C79.0934 8.98038 79.0517 8.86693 79.1351 8.94256C79.2602 9.05601 79.2185 9.01819 79.1768 9.13158C79.4269 9.09382 79.2602 9.01819 79.5937 9.13158C79.7187 8.90474 79.5103 9.05601 79.8021 8.94256C79.7187 8.90475 79.7187 8.94257 79.6353 8.86693Z" fill="#B1C900" />
    <path fill-rule="evenodd" clip-rule="evenodd" d="M68.9648 13.782C69.0065 14.1222 69.4651 14.0845 69.6734 13.8954C69.5067 13.8198 69.1733 13.6686 68.9648 13.782Z" fill="#B1C900" />
    <path fill-rule="evenodd" clip-rule="evenodd" d="M83.0535 11.4379C83.0952 11.5514 83.0952 11.5136 83.1786 11.627C83.0952 11.6648 83.0119 11.6648 82.9285 11.7026C82.8451 11.7782 82.7201 12.005 83.0119 11.816C83.3454 11.6269 83.4287 11.7404 83.4704 11.3623C83.262 11.3623 83.1786 11.4001 83.0535 11.4379Z" fill="#B1C900" />
    <path fill-rule="evenodd" clip-rule="evenodd" d="M76.3428 4.59477L76.5512 4.70823C76.8013 4.67042 77.3432 4.63259 77.5516 4.55701C77.3849 4.48138 76.7596 4.59477 76.5929 4.63259C76.6346 4.55701 76.5512 4.59477 76.6762 4.5192C76.7179 4.5192 76.9264 4.36794 77.0097 4.40576C76.7596 4.36794 76.4678 4.44357 76.3428 4.59477Z" fill="#B1C900" />
    <path fill-rule="evenodd" clip-rule="evenodd" d="M70.4648 10.9465C70.7566 10.8331 70.5899 10.9843 70.8817 11.0221L71.1317 10.7196L70.965 10.644L71.0484 10.4928C71.0484 10.4928 71.0484 10.4928 71.0484 10.455C70.7566 10.5684 70.965 10.6062 70.7983 10.7196C70.6733 10.8331 70.5482 10.7952 70.4648 10.9465V10.9465Z" fill="#B1C900" />
    <path fill-rule="evenodd" clip-rule="evenodd" d="M78.8018 9.50985C78.9685 9.50985 79.0935 9.50986 79.2603 9.47204C79.2603 9.47204 79.2603 9.47204 79.3019 9.47204L79.3853 9.39641C79.302 9.24521 79.1769 9.20739 78.8435 9.24521C78.7601 9.39641 78.7601 9.35859 78.8018 9.50985V9.50985Z" fill="#B1C900" />
    <path fill-rule="evenodd" clip-rule="evenodd" d="M77.3848 13.4794C77.6348 13.4794 77.7182 13.366 77.8849 13.2904L77.7599 13.0258C77.3431 13.1014 77.5098 13.2904 77.3848 13.4794Z" fill="#B1C900" />
    <path fill-rule="evenodd" clip-rule="evenodd" d="M70.1319 10.0391L70.2987 10.1147C69.9652 10.1147 69.9652 10.0769 69.8818 10.2281C70.3404 10.266 70.5071 10.266 70.9239 10.266C70.8406 10.1903 71.0489 10.1903 70.7989 10.1903C70.7155 10.1903 70.8406 10.2281 70.6322 10.2281C70.5488 10.1903 70.5071 10.1525 70.3404 10.1525C70.4237 10.1147 70.4237 10.1147 70.5488 10.1147L70.5071 10.0769L70.4654 10.0391C70.4237 10.0013 70.3821 10.0013 70.3404 9.9635C70.257 10.0013 70.382 9.9635 70.257 10.0013L70.1736 10.0391H70.1319V10.0391Z" fill="#B1C900" />
    <path fill-rule="evenodd" clip-rule="evenodd" d="M78.1348 9.73653C78.0931 9.81216 78.0931 9.73653 78.1765 9.84992C78.0514 9.92555 78.0931 9.88775 78.0098 9.96338C78.0931 10.0012 78.0515 10.0012 78.1348 9.96338C78.1348 9.96338 78.1348 9.96338 78.1765 9.96338L78.2182 9.92555C78.2599 9.96337 78.2182 9.96338 78.2182 10.0012L78.2599 10.039C78.2599 10.0768 78.2599 10.0768 78.2599 10.0768C78.5934 10.0768 78.3433 10.0768 78.4683 10.0012C78.5517 9.96338 78.5934 9.96338 78.635 9.96338C78.5934 9.69873 78.4266 9.96337 78.3016 9.73653L78.2599 9.62309C78.2599 9.58533 78.2599 9.58533 78.2599 9.58533C78.1765 9.6609 78.1765 9.6609 78.1348 9.73653Z" fill="#B1C900" />
    <path fill-rule="evenodd" clip-rule="evenodd" d="M71.2158 12.8368C71.3826 13.2527 71.1741 12.9124 71.2992 13.1392C71.3409 13.2148 71.5493 13.3661 71.591 13.2905C71.6744 13.2148 71.591 13.0636 71.5493 12.9502C71.4242 12.799 71.3826 12.8746 71.2158 12.8368Z" fill="#B1C900" />
    <path fill-rule="evenodd" clip-rule="evenodd" d="M69.3818 7.84615L69.882 7.80839L70.007 7.58155C69.9654 7.54374 70.007 7.58156 69.9654 7.50593C69.9237 7.50593 69.882 7.46811 69.882 7.4303C69.5069 7.92179 69.5069 7.50592 69.3818 7.84615V7.84615Z" fill="#B1C900" />
    <path fill-rule="evenodd" clip-rule="evenodd" d="M73.7168 7.01454C73.8835 6.97672 74.0086 6.86328 74.1753 6.74989C74.3421 6.67426 74.4254 6.59862 74.5505 6.48523C74.217 6.56086 73.7585 6.71207 73.7168 7.01454Z" fill="#B1C900" />
    <path fill-rule="evenodd" clip-rule="evenodd" d="M80.6363 13.8576C80.8447 13.8576 81.0114 13.8954 81.0948 13.6685C81.0114 13.6307 80.803 13.5551 80.7196 13.5551C80.5946 13.5551 80.5946 13.4795 80.6363 13.8576Z" fill="#B1C900" />
    <path fill-rule="evenodd" clip-rule="evenodd" d="M82.0107 10.9463L82.1358 11.0976L82.3442 11.0598C82.3859 11.022 82.4693 11.022 82.5526 11.022C82.4276 10.8707 82.4693 10.9463 82.511 10.7573C82.3025 10.7573 82.1358 10.833 82.0107 10.9463V10.9463Z" fill="#B1C900" />
    <path fill-rule="evenodd" clip-rule="evenodd" d="M78.5518 13.8954C78.5934 13.9332 78.5101 14.1601 79.1353 14.1601L78.9269 13.8577L78.5518 13.8954Z" fill="#B1C900" />
    <path fill-rule="evenodd" clip-rule="evenodd" d="M71.5908 5.80466H72.0077C72.0494 5.6534 72.091 5.6534 72.1744 5.54001C72.0077 5.57783 72.091 5.61559 71.9243 5.6534C71.6742 5.5022 72.0077 5.5022 71.6742 5.5022C71.5908 5.6534 71.5908 5.61558 71.5908 5.80466V5.80466Z" fill="#B1C900" />
    <path fill-rule="evenodd" clip-rule="evenodd" d="M69.0068 12.3075C69.1319 12.2697 69.4237 12.0428 69.507 11.9672C69.507 11.7782 69.4654 11.816 69.4237 11.7404C69.2986 11.8538 69.0485 12.1184 69.0068 12.3075Z" fill="#B1C900" />
    <path fill-rule="evenodd" clip-rule="evenodd" d="M75.8005 13.2149C75.7172 13.1015 75.7588 13.1015 75.6338 13.1392C75.6755 13.2905 75.8005 13.3661 75.9673 13.4039C76.0923 13.2527 76.1757 13.1771 76.0923 12.988L75.8005 13.2149Z" fill="#B1C900" />
    <path fill-rule="evenodd" clip-rule="evenodd" d="M76.5091 13.2526C76.6342 13.2148 76.8843 13.0636 77.0093 12.988C76.4674 12.9502 76.7592 12.8745 76.5091 12.799C76.4674 12.9502 76.5508 13.0258 76.5091 13.2526Z" fill="#B1C900" />
    <path fill-rule="evenodd" clip-rule="evenodd" d="M84.0537 14.7649C84.2621 14.7271 84.3871 14.7271 84.5539 14.6515L84.4705 14.3868C84.3455 14.4247 84.3455 14.4625 84.2621 14.5381C84.0954 14.6515 84.0954 14.5003 84.0537 14.7649V14.7649Z" fill="#B1C900" />
    <path fill-rule="evenodd" clip-rule="evenodd" d="M82.095 14.1979L82.0533 14.3491C81.6782 14.3491 81.8032 14.3869 81.8032 14.4247C82.0116 14.576 82.4285 14.3113 82.5118 14.1979H82.095Z" fill="#B1C900" />
    <path fill-rule="evenodd" clip-rule="evenodd" d="M80.7188 14.8406C80.7188 14.9918 80.7187 15.0674 80.8021 15.1808L81.0522 15.143C81.0522 15.0296 81.0105 15.0296 80.9272 14.954C80.9689 14.8783 81.0105 14.8783 81.0522 14.8028C80.9272 14.765 80.8438 14.8028 80.7188 14.8406Z" fill="#B1C900" />
    <path fill-rule="evenodd" clip-rule="evenodd" d="M82.6367 14.5382C82.6784 14.576 82.7201 14.6138 82.8034 14.6516C82.9701 14.576 82.8034 14.6516 82.9285 14.5382C83.0118 14.4625 83.0118 14.6138 83.0535 14.4247C83.0952 14.2735 83.0535 14.3869 83.1786 14.2357C83.2203 14.2357 83.2202 14.2357 83.2202 14.1979L82.8868 14.2357C82.9284 14.4247 82.8451 14.4247 82.6367 14.5382V14.5382Z" fill="#B1C900" />
    <path fill-rule="evenodd" clip-rule="evenodd" d="M70.2988 6.4096C70.5906 6.2584 70.2572 6.33398 70.7157 6.22059C70.7157 6.18277 70.7574 6.18277 70.799 6.18277C70.8407 6.14496 70.8407 6.10714 70.8407 6.10714C70.7157 5.99375 70.7574 6.03157 70.5489 6.03157C70.4239 6.18277 70.2988 6.18277 70.2988 6.4096V6.4096Z" fill="#B1C900" />
    <path fill-rule="evenodd" clip-rule="evenodd" d="M76.1348 13.593L76.2598 13.4795C76.3014 13.4039 76.3015 13.3661 76.3431 13.3283C76.4265 13.1771 76.4682 13.1015 76.3848 12.988C76.1348 13.1015 76.1348 13.3661 76.1348 13.593V13.593Z" fill="#B1C900" />
    <path fill-rule="evenodd" clip-rule="evenodd" d="M78.8438 13.0258C79.0938 12.988 79.2605 12.9124 79.3439 12.7233C79.2605 12.6477 79.2605 12.6477 79.1772 12.5721C79.1772 12.5721 79.1772 12.5721 79.1772 12.61L79.0104 12.799C78.9271 12.8746 78.9271 12.9124 78.8438 13.0258Z" fill="#B1C900" />
    <path fill-rule="evenodd" clip-rule="evenodd" d="M76.0508 7.61934L76.1341 7.84618C76.3008 7.80842 76.4676 7.73279 76.5509 7.61934C76.5092 7.46814 76.5509 7.54377 76.4259 7.46814C76.2591 7.61935 76.3842 7.65716 76.0508 7.61934V7.61934Z" fill="#B1C900" />
    <path fill-rule="evenodd" clip-rule="evenodd" d="M72.2155 10.5684C72.1738 10.644 72.1322 10.6818 72.1322 10.7952C72.1322 10.7952 72.0905 10.7574 72.0488 10.7574C71.8404 10.6818 72.0071 10.7196 71.9654 10.7574C72.0488 10.8708 72.0488 10.8708 72.2155 10.9086C72.2572 10.8708 72.2155 10.9465 72.2572 10.7952C72.3405 10.6062 72.2572 10.7196 72.4656 10.5306C72.3822 10.4928 72.2155 10.455 72.0905 10.455L72.2155 10.5684Z" fill="#B1C900" />
    <path fill-rule="evenodd" clip-rule="evenodd" d="M68.5059 14.0088C68.3392 14.1222 68.2559 14.0467 68.2559 14.2357C68.4642 14.2357 68.5893 14.1979 68.7143 14.1222C68.6726 13.971 68.631 13.8954 68.4225 13.8954C68.5059 13.971 68.5059 13.971 68.5059 14.0088Z" fill="#B1C900" />
    <path fill-rule="evenodd" clip-rule="evenodd" d="M73.7168 8.29997C74.1336 7.92187 73.8418 8.22434 74.1336 8.07314V7.88405C73.8835 7.84624 73.9252 7.88406 73.8418 7.99751C73.7585 8.1109 73.7168 8.14871 73.7168 8.29997Z" fill="#B1C900" />
    <path fill-rule="evenodd" clip-rule="evenodd" d="M72.5497 8.29991C72.6331 8.37549 72.4663 8.29991 72.5914 8.33772L72.7164 8.37549C72.8832 8.37549 72.8415 8.37548 72.9665 8.33772C72.9665 8.11083 72.9665 8.18647 72.7998 8.11084C72.6747 8.14866 72.5497 8.18646 72.5497 8.29991V8.29991Z" fill="#B1C900" />
    <path fill-rule="evenodd" clip-rule="evenodd" d="M83.8454 13.593C83.8037 13.6685 83.8454 13.6685 83.8871 13.7442C84.0121 13.8576 83.9704 13.782 83.9288 13.9332L84.0121 13.8576V13.8198L84.0538 13.782C84.1371 13.8576 84.1371 13.971 84.4289 14.0088L84.2205 13.7442C83.8037 13.6685 83.9704 13.5551 83.8454 13.593V13.593Z" fill="#B1C900" />
    <path fill-rule="evenodd" clip-rule="evenodd" d="M66.7557 11.8161C66.4222 11.8916 66.7557 11.8161 66.4639 11.8161C66.5056 11.9673 66.5055 11.9673 66.5889 12.0807C66.6306 12.0429 66.6723 11.9673 66.7557 11.9673L66.9224 11.8916H66.9641L66.7973 11.6648L66.7557 11.8161Z" fill="#B1C900" />
    <path fill-rule="evenodd" clip-rule="evenodd" d="M78.8018 10.9085C78.6768 10.9842 78.6768 10.9842 78.6768 11.1354L78.9268 11.211C78.9268 11.0598 78.8851 10.9842 78.9685 10.8707L78.7184 10.7573C78.7184 10.833 78.7185 10.7951 78.7601 10.833L78.8018 10.9085Z" fill="#B1C900" />
    <path fill-rule="evenodd" clip-rule="evenodd" d="M85.5127 14.6893C85.7211 14.765 85.8462 14.9162 86.0129 14.954C86.0129 14.8406 86.0546 14.8784 85.9712 14.765L85.8879 14.6138C85.7211 14.6515 85.8462 14.6515 85.5127 14.6893Z" fill="#B1C900" />
    <path fill-rule="evenodd" clip-rule="evenodd" d="M78.3428 5.8047C78.4261 5.88027 78.4261 5.88027 78.5512 5.91809C78.6346 5.84246 78.8013 5.72907 78.8846 5.65344H78.5512L78.3428 5.8047Z" fill="#B1C900" />
    <path fill-rule="evenodd" clip-rule="evenodd" d="M74.7168 8.07311C74.8418 8.07311 74.9252 8.03529 75.0085 7.99748C75.1753 7.95966 75.217 7.99747 75.1753 7.88402C75.0919 7.84621 75.0919 7.88402 74.9668 7.88402C74.8835 7.84621 74.9252 7.80845 74.8002 7.77063L74.7168 8.07311Z" fill="#B1C900" />
    <path fill-rule="evenodd" clip-rule="evenodd" d="M77.2178 6.14493L77.5929 6.06935C77.5512 5.8047 77.4679 6.06934 77.3845 5.80469C77.3011 5.88026 77.2178 5.99372 77.2178 6.14493Z" fill="#B1C900" />
    <path fill-rule="evenodd" clip-rule="evenodd" d="M77.0088 8.29995C77.1338 8.33776 77.4673 8.26214 77.5506 8.14869C77.3423 7.99748 77.1338 8.14869 77.0088 8.29995Z" fill="#B1C900" />
    <path fill-rule="evenodd" clip-rule="evenodd" d="M69.2979 13.3283V13.4039C69.4229 13.4039 69.5063 13.4039 69.673 13.4039C69.8814 13.4417 69.798 13.4795 69.9231 13.3283C69.7146 13.1771 69.7563 13.3283 69.2979 13.3283Z" fill="#B1C900" />
    <path fill-rule="evenodd" clip-rule="evenodd" d="M82.0947 6.44728C82.1364 6.56073 82.0531 6.4473 82.1781 6.56074C82.2615 6.5985 82.2615 6.59849 82.3032 6.6363C82.4282 6.74975 82.3865 6.78757 82.5116 6.82539C82.5949 6.67413 82.5116 6.63632 82.3865 6.56074C82.2615 6.4473 82.1781 6.40947 82.0947 6.44728V6.44728Z" fill="#B1C900" />
    <path fill-rule="evenodd" clip-rule="evenodd" d="M69.1318 11.022C69.2152 11.0598 69.1735 10.9842 69.3819 11.0598C69.5487 11.0976 69.5487 11.0598 69.632 10.9842L69.507 10.8707C69.4236 10.9085 69.3819 10.9085 69.2986 10.9085C69.0902 10.9464 69.1735 10.9085 69.1318 11.022V11.022Z" fill="#B1C900" />
    <path fill-rule="evenodd" clip-rule="evenodd" d="M74.2996 7.35472L74.1329 7.31698C74.0912 7.43037 74.1329 7.35474 74.0495 7.43037C73.8828 7.506 74.0079 7.35473 73.9245 7.506C73.9662 7.54381 73.7994 7.58163 74.0912 7.54381C74.2163 7.50599 74.4247 7.43036 74.4247 7.24133L74.2996 7.35472Z" fill="#B1C900" />
    <path fill-rule="evenodd" clip-rule="evenodd" d="M70.0907 13.0636C70.1324 13.177 70.0074 13.177 70.2992 13.177C70.2575 12.988 70.2158 13.1014 70.0074 12.988C69.8823 12.9123 69.8406 12.8368 69.7156 12.799C69.7156 12.988 69.6739 12.9123 69.8406 12.988C69.9657 13.0636 69.924 13.0636 70.0907 13.0636V13.0636Z" fill="#B1C900" />
    <path fill-rule="evenodd" clip-rule="evenodd" d="M65.4629 15.7101C65.5046 15.7857 65.5046 15.7857 65.6296 15.7857C65.7129 15.7857 65.7963 15.7479 65.838 15.7479C66.0881 15.7479 65.9214 15.8613 66.1715 15.7101C66.0881 15.6723 66.0464 15.6344 65.9631 15.5967C65.8797 15.6344 65.9214 15.7101 65.4629 15.7101V15.7101Z" fill="#B1C900" />
    <path fill-rule="evenodd" clip-rule="evenodd" d="M74.0919 12.3453C74.3003 12.3453 74.5504 12.3075 74.4254 12.1185L74.3003 12.2697C74.1336 12.1941 74.1336 12.1563 74.0085 12.0807C73.9669 12.2697 74.0085 12.1941 74.0919 12.3453V12.3453Z" fill="#B1C900" />
    <path fill-rule="evenodd" clip-rule="evenodd" d="M71.7578 12.799C71.7995 12.8368 71.7995 12.8745 71.8412 12.9124C72.0496 12.8745 72.1747 12.8368 72.258 12.7233C72.0913 12.7233 71.8412 12.6855 71.7578 12.799Z" fill="#B1C900" />
    <path fill-rule="evenodd" clip-rule="evenodd" d="M69.5479 11.0977C69.5895 11.1354 69.5478 11.0977 69.6312 11.1354C69.6312 11.1732 69.7145 11.2111 69.7145 11.2111C69.7979 11.2489 69.8396 11.2489 69.9646 11.2489C69.8813 11.0599 69.923 11.2489 69.7979 11.0599C69.7979 11.0599 69.7979 11.022 69.7979 10.9842H69.7562V10.9464C69.6312 11.022 69.6312 10.9842 69.5479 11.0977Z" fill="#B1C900" />
    <path fill-rule="evenodd" clip-rule="evenodd" d="M87.0547 14.2735C87.3882 14.2735 87.4298 14.2735 87.4715 14.1222L87.0964 14.0845C87.0964 14.1979 87.0964 14.16 87.0547 14.2735Z" fill="#B1C900" />
    <path fill-rule="evenodd" clip-rule="evenodd" d="M80.3021 7.73275H80.0938C80.1354 7.80838 80.4272 7.88395 80.5522 7.92177C80.5105 7.80838 80.4272 7.65712 80.3438 7.58154L80.3021 7.73275Z" fill="#B1C900" />
    <path fill-rule="evenodd" clip-rule="evenodd" d="M71.0488 9.39638L71.2573 9.3208C71.3823 9.24517 71.3406 9.32079 71.424 9.20734L71.0905 9.13171L71.0488 9.39638Z" fill="#B1C900" />
    <path fill-rule="evenodd" clip-rule="evenodd" d="M74.7168 6.71209C74.7585 6.71209 74.6751 6.7499 74.8002 6.7499H75.217C75.1336 6.63646 75.0502 6.59863 74.8835 6.59863L74.7168 6.71209Z" fill="#B1C900" />
    <path fill-rule="evenodd" clip-rule="evenodd" d="M81.7192 6.52293V6.33386C81.5524 6.37168 81.5524 6.33386 81.3857 6.33386C81.4274 6.63633 81.5107 6.4473 81.7192 6.52293Z" fill="#B1C900" />
    <path fill-rule="evenodd" clip-rule="evenodd" d="M73.2164 6.18266C73.133 6.22048 73.1331 6.22048 73.0914 6.25829C72.9663 6.4095 73.0497 6.33387 73.0497 6.37168C73.133 6.4095 73.1331 6.37168 73.2581 6.33387C73.3415 6.25829 73.3831 6.22048 73.5082 6.22048C73.4248 6.06927 73.5915 6.18266 73.2164 6.18266V6.18266Z" fill="#B1C900" />
    <path fill-rule="evenodd" clip-rule="evenodd" d="M84.5957 13.9332C84.8458 13.971 84.8875 13.9332 85.0542 13.8576C84.9292 13.782 84.8875 13.8576 84.7624 13.7441L84.6791 13.8198C84.6374 13.8576 84.6374 13.8576 84.5957 13.9332V13.9332Z" fill="#B1C900" />
    <path fill-rule="evenodd" clip-rule="evenodd" d="M71.9658 7.88395L72.0909 8.03522L72.466 7.9596C72.466 7.9596 72.466 7.92178 72.4243 7.9596V7.92177L72.2159 7.88395C72.1325 7.84614 72.0492 7.84614 71.9658 7.88395V7.88395Z" fill="#B1C900" />
    <path fill-rule="evenodd" clip-rule="evenodd" d="M72.2988 9.77442C72.5072 9.81224 72.5906 9.81224 72.674 9.6988C72.6323 9.66098 72.7574 9.62317 72.4656 9.62317L72.2988 9.77442Z" fill="#B1C900" />
    <path fill-rule="evenodd" clip-rule="evenodd" d="M79.0938 10.1903C79.1354 10.4171 79.3022 10.3415 79.4272 10.2281C79.3855 10.1903 79.4272 10.1903 79.2605 10.1525C79.1771 10.1525 79.1354 10.1525 79.0938 10.1903V10.1903Z" fill="#B1C900" />
    <path fill-rule="evenodd" clip-rule="evenodd" d="M70.1734 10.7196L69.7148 10.5684C69.7148 10.7952 70.0483 10.7952 70.1734 10.7196Z" fill="#B1C900" />
    <path fill-rule="evenodd" clip-rule="evenodd" d="M80.0107 14.1978C80.2191 14.2357 80.1358 14.2735 80.3859 14.2735L80.2608 14.0466L80.0107 14.1978Z" fill="#B1C900" />
    <path fill-rule="evenodd" clip-rule="evenodd" d="M66.3809 9.13172C66.5476 9.28299 66.6726 9.13172 66.7143 9.01833C66.5476 8.98052 66.4642 9.01833 66.3809 9.13172Z" fill="#B1C900" />
    <path fill-rule="evenodd" clip-rule="evenodd" d="M78.5935 7.73276L78.6352 7.65713C78.5519 7.50592 78.5935 7.65713 78.3851 7.50593C78.3017 7.43029 78.4268 7.50593 78.3018 7.4303C78.3018 7.61932 78.4268 7.69494 78.5935 7.73276Z" fill="#B1C900" />
    <path fill-rule="evenodd" clip-rule="evenodd" d="M74.2588 6.82541H74.3005C74.3005 6.86318 74.3005 6.86318 74.3005 6.86318C74.4672 6.90099 74.4672 6.93881 74.6756 6.86318C74.5506 6.7876 74.3838 6.67415 74.2588 6.82541Z" fill="#B1C900" />
    <path fill-rule="evenodd" clip-rule="evenodd" d="M82.6787 9.73655C82.7204 9.73655 82.8037 9.69874 82.8454 9.69874L82.9704 9.62311C82.8871 9.50972 82.6787 9.43409 82.6787 9.73655Z" fill="#B1C900" />
    <path fill-rule="evenodd" clip-rule="evenodd" d="M79.6355 8.86696H79.7605C79.6772 8.71575 79.7605 8.8292 79.6772 8.75357L79.5938 8.60229C79.5104 8.67793 79.5104 8.67793 79.4688 8.79138L79.6355 8.86696Z" fill="#B1C900" />
    <path fill-rule="evenodd" clip-rule="evenodd" d="M66.7139 10.5306C66.7972 10.4928 66.9223 10.5306 67.0473 10.5306C67.0057 10.4171 67.0057 10.3793 66.8806 10.3416C66.7972 10.3793 66.7972 10.4171 66.7139 10.5306Z" fill="#B1C900" />
    <path fill-rule="evenodd" clip-rule="evenodd" d="M66.0884 9.24516C66.005 9.09395 66.0884 9.24515 65.9216 9.1317C65.7966 9.09394 65.8799 9.1317 65.8382 9.09394L65.7549 9.01831C65.7549 9.20733 65.8799 9.32079 66.0884 9.24516Z" fill="#B1C900" />
    <path fill-rule="evenodd" clip-rule="evenodd" d="M67.3389 11.4001C67.4222 11.4758 67.4639 11.4758 67.6307 11.4758C67.589 11.3623 67.589 11.3623 67.5056 11.2867C67.4222 11.3246 67.5473 11.2489 67.4222 11.3246L67.3389 11.4001Z" fill="#B1C900" />
    <path fill-rule="evenodd" clip-rule="evenodd" d="M72.5908 8.67797C72.6742 8.79141 72.7159 8.82923 72.8826 8.75359C72.8826 8.75359 72.8826 8.64014 72.6742 8.64014C72.5908 8.64014 72.6325 8.64015 72.5908 8.67797Z" fill="#B1C900" />
    <path fill-rule="evenodd" clip-rule="evenodd" d="M76.3008 9.01819C76.5092 8.98037 76.5926 8.94256 76.5926 8.75354C76.4258 8.86693 76.4258 8.86692 76.3008 9.01819Z" fill="#B1C900" />
    <path fill-rule="evenodd" clip-rule="evenodd" d="M72.8408 9.32076C72.9242 9.43415 72.9242 9.47197 73.1326 9.47197C73.0909 9.35852 72.9242 9.24513 72.8408 9.32076Z" fill="#B1C900" />
    <path fill-rule="evenodd" clip-rule="evenodd" d="M68.5479 15.2187C68.6313 15.0675 68.4645 15.143 68.5896 14.9918H68.4229C68.4229 15.2943 68.5062 15.1809 68.5479 15.2187Z" fill="#B1C900" />
    <path fill-rule="evenodd" clip-rule="evenodd" d="M84.9287 13.6308C84.9704 13.7064 85.0121 13.7064 85.0538 13.782C85.0538 13.782 85.0538 13.7442 85.0538 13.782L85.1371 13.6686C85.1788 13.6308 85.1788 13.6308 85.2205 13.5552L84.9287 13.6308Z" fill="#B1C900" />
    <path fill-rule="evenodd" clip-rule="evenodd" d="M73.7576 9.24507C73.7576 9.05604 73.7992 9.09385 73.5908 9.05603C73.5908 9.20724 73.5908 9.24507 73.7576 9.24507Z" fill="#B1C900" />
    <path fill-rule="evenodd" clip-rule="evenodd" d="M65.7549 14.7649L66.0467 14.6893C65.9216 14.5381 66.005 14.6137 65.9216 14.5759C65.8383 14.6137 65.7966 14.7271 65.7549 14.7649V14.7649Z" fill="#B1C900" />
    <path fill-rule="evenodd" clip-rule="evenodd" d="M73.2158 11.4001C73.3825 11.3623 73.3825 11.3245 73.3408 11.2111C73.2158 11.2489 73.2992 11.1733 73.2158 11.2489C73.1741 11.3245 73.2158 11.3623 73.2158 11.4001V11.4001Z" fill="#B1C900" />
    <path fill-rule="evenodd" clip-rule="evenodd" d="M76.7175 5.84237C76.6759 5.80461 76.6759 5.76679 76.6759 5.76679C76.5925 5.69116 76.6342 5.72898 76.5508 5.69116C76.4257 5.84237 76.5508 5.84237 76.7175 5.84237Z" fill="#B1C900" />
    <path fill-rule="evenodd" clip-rule="evenodd" d="M81.8022 6.44734C81.7189 6.56078 81.8022 6.56078 81.969 6.59854C81.9273 6.48515 81.8856 6.40952 81.8022 6.44734Z" fill="#B1C900" />
    <path fill-rule="evenodd" clip-rule="evenodd" d="M79.6768 10.9464C79.7601 10.9464 79.7184 10.9842 79.8435 10.8707C79.8018 10.7574 79.8435 10.833 79.7184 10.7952L79.6768 10.833C79.6768 10.8707 79.6768 10.9086 79.6768 10.9464Z" fill="#B1C900" />
    <path fill-rule="evenodd" clip-rule="evenodd" d="M80.4692 11.5136C80.5942 11.438 80.5942 11.4002 80.5525 11.3246C80.4275 11.3623 80.3858 11.3623 80.4692 11.5136Z" fill="#B1C900" />
    <path fill-rule="evenodd" clip-rule="evenodd" d="M66.9639 12.799C67.0056 12.8369 67.0055 12.9124 67.0472 12.9124C67.1722 12.9124 67.1305 12.8369 67.1305 12.7612L66.9639 12.799Z" fill="#B1C900" />
    <path fill-rule="evenodd" clip-rule="evenodd" d="M71.799 8.07315C71.7574 7.9597 71.7574 7.95969 71.6323 7.92188C71.6323 8.07314 71.5906 8.03533 71.799 8.07315Z" fill="#B1C900" />
    <path fill-rule="evenodd" clip-rule="evenodd" d="M72.4248 4.06552C72.4665 4.17892 72.4248 4.10328 72.4665 4.17892C72.5082 4.10328 72.5499 4.06553 72.5915 4.02771L72.4248 4.06552Z" fill="#B1C900" />
    <path fill-rule="evenodd" clip-rule="evenodd" d="M43.7158 10.443C43.7159 9.43298 44.122 9.59017 45.4863 9.5899C48.6764 9.58952 50.8747 11.1697 50.8777 14.3389C50.8805 17.1624 49.2839 18.3121 46.4852 18.3091C44.1184 18.3064 43.7154 17.065 43.7154 14.8384L43.7158 10.443ZM43.828 8.4058C43.5991 7.8311 43.6606 2.89232 43.7126 1.95129C43.7463 1.34292 43.9947 1.23601 44.6002 1.16823C45.1078 1.11145 45.6419 1.11951 46.1442 1.18637C49.6781 1.65672 50.1308 5.23704 48.9113 7.07523C48.2763 8.03239 45.5818 8.93761 43.828 8.4058V8.4058ZM49.392 8.64076C49.6479 8.20381 51.6137 7.63799 52.1485 5.52109C52.6363 3.59038 51.765 2.10517 50.7191 1.31273C48.2979 -0.521534 43.7458 0.0869439 40.3929 0.133805C39.9276 0.140343 39.4047 0.0603596 38.9907 0.241808C38.5518 0.434155 38.4718 0.860249 38.8292 1.11439C39.3709 1.49973 40.4629 1.09139 40.9153 1.92954C41.4681 2.95356 40.8231 17.8962 41.1847 19.2415C41.9059 19.5 46.8762 19.4524 47.8442 19.3224C50.0624 19.0247 51.4962 18.3665 52.5861 17.1424C53.7044 15.8862 54.1377 13.4812 53.3214 11.597C52.3625 9.3835 50.6517 9.2202 49.392 8.64076V8.64076Z" fill="#006AB3" />
    <path fill-rule="evenodd" clip-rule="evenodd" d="M23.9924 0.771386C23.534 0.180669 23.5448 0.206655 22.6129 0.209816C21.8008 0.21254 19.3703 0.0940204 18.7575 0.298464C18.0894 1.81174 21.1322 0.43164 21.5886 2.77582C21.8286 4.00803 21.6485 6.84611 21.6486 8.24533C21.6487 9.51427 21.4769 18.7839 21.7384 19.0994C21.8598 19.2251 22.0495 19.2849 22.2478 19.2885C22.5321 19.2939 22.8339 19.1835 22.9769 18.9865C23.3238 18.5477 22.8887 6.14798 23.1686 4.19498C23.4827 4.34068 27.262 8.96044 28.3548 10.0929L30.0852 12.0591C31.5465 13.8423 33.6264 16.0755 35.2578 17.976C35.8763 18.6966 36.7083 20.0459 37.2583 19.5969C37.518 19.1493 37.3119 15.7634 37.3041 14.9384C37.2848 12.8883 37.4403 0.572987 37.2161 0.335197C36.9105 0.147699 36.2985 0.133641 36.011 0.371813C35.5763 0.981873 36.1491 12.4562 35.8453 14.4956C35.4602 14.3841 28.9977 7.04825 28.3536 6.2987C27.0474 4.77862 25.3031 2.45995 23.9924 0.771386V0.771386Z" fill="#006AB3" />
    <path fill-rule="evenodd" clip-rule="evenodd" d="M11.7217 11.436C11.462 11.4415 11.2308 11.5854 11.2481 11.8578C11.2978 12.6419 13.2861 12.2037 13.9217 12.6364C14.6106 13.1052 14.4952 14.9371 14.4524 15.9375C14.3845 17.5238 14.3895 17.9924 12.8563 18.2788C11.8118 18.4738 10.4839 18.4348 9.42934 18.237C5.37169 17.4757 3.11317 13.9111 3.03737 9.24437C2.96011 4.48371 5.6818 1.23877 10.325 1.11982C15.6692 0.982889 15.8501 4.33342 16.237 4.92796C16.5347 5.38528 17.2573 5.41924 17.1345 4.35049C16.6543 0.170955 17.176 0.86056 15.1684 0.499351C11.3474 -0.188083 7.32769 -0.253745 4.03889 2.05708C0.693748 4.40758 -0.899132 8.94403 0.518348 13.0521C1.72882 16.5604 5.0739 19.0065 9.62451 19.4179C10.912 19.5343 12.1305 19.4888 13.3878 19.304C17.4448 18.7081 16.9798 18.589 16.9766 17.0362L16.9763 13.24C16.9764 12.5826 17.0969 11.782 16.8086 11.5434C16.493 11.3445 12.1134 11.4093 11.7217 11.436Z" fill="#006AB3" />
</svg>
    