<svg width="110" height="20" viewBox="0 0 110 20" fill="none" xmlns="http://www.w3.org/2000/svg">
    <g clip-path="url(#clip0_845_61616)">
        <path fill-rule="evenodd" clip-rule="evenodd" d="M104.143 11.1428L104.072 11.0714V11C105.215 9.57141 107.643 6.92855 108.572 6.07141H107.143C106.286 6.07141 105.715 6.21427 105 6.7857C103.715 7.92855 102.715 9.35713 101.643 10.7143L101.429 11V3.14284H98.8576V16.7857H101.429V11.2857L101.643 11.5C102.858 13.1428 104.072 14.7143 105.5 16.2143C105.929 16.6428 106.643 16.9286 107.215 16.9286C107.929 16.9286 108.358 16.7143 108.643 16.4286L104.143 11.1428V11.1428ZM53.2861 5.85713C50.2147 5.85713 48.0004 8.07141 48.0004 11.7143C48.0004 15 50.6433 17 53.3576 17C54.929 17 55.929 16.7857 56.5004 16.2857V14.5C55.7147 14.8571 54.7147 15 53.8576 15C52.2147 15 50.8576 14.1428 50.6433 12.6428V12.5H52.5718C54.3576 12.5 55.6433 12.3571 56.5004 12C57.2861 11.5714 57.6433 10.9286 57.6433 9.99998C57.6433 7.42855 55.5718 5.85713 53.3576 5.85713H53.2861ZM54.5718 10.5714C54.0718 10.7857 53.2861 10.8571 51.929 10.8571H50.5718V10.3571C50.7147 8.99998 51.6433 7.92855 53.0718 7.92855C53.7861 7.92855 54.2861 8.07141 54.6433 8.35713C55.0718 8.64284 55.2861 9.07141 55.2861 9.64284C55.2861 10.0714 55.0718 10.3571 54.5718 10.5714V10.5714ZM59.0004 9.99998V16.8571H61.5718V10.5C61.5718 9.64284 61.7147 9.07141 62.0718 8.64284C62.429 8.21427 62.929 8.07141 63.5718 8.07141H64.2861V6.14284C63.8798 5.9733 63.4398 5.89996 63.0004 5.92855C60.1433 5.92855 59.0004 7.92855 59.0004 10.0714V9.99998ZM25.429 16.8571H27.8576V3.07141H25.2861V16.8571H25.429ZM34.7147 5.85713C31.3576 5.85713 29.8576 8.14284 29.8576 10.4286V16.8571H32.3576V10.6428C32.3576 9.7857 32.5718 9.21427 32.929 8.71427C33.3576 8.2857 33.8576 7.99998 34.5004 7.99998C35.2147 7.99998 35.8576 8.21427 36.2861 8.71427C36.6433 9.14284 36.8576 9.85713 36.8576 10.8571V16.8571H39.429V10.5714C39.429 7.49998 37.2861 5.85713 34.7147 5.85713V5.85713ZM43.929 3.07141H41.429V13.0714C41.429 15.5 42.7147 17 45.5004 17C46.6433 17 47.3576 16.6428 47.6433 16.0714V14.5C47.2147 14.6428 46.5718 14.7857 45.8576 14.7857C45.2861 14.7857 44.7861 14.6428 44.429 14.2857C44.1433 13.9286 44.0004 13.4286 44.0004 12.7143V8.07141H46.1433C47.2861 8.07141 47.7147 7.35713 47.7147 6.85713V5.85713H44.0004V3.07141H43.929ZM92.1433 5.85713C88.7147 5.85713 87.2147 8.14284 87.2147 10.4286V16.8571H89.7861V10.6428C89.7861 9.7857 90.0004 9.21427 90.3576 8.71427C90.7147 8.2857 91.2861 7.99998 91.929 7.99998C92.6433 7.99998 93.2147 8.21427 93.6433 8.71427C94.0719 9.14284 94.2861 9.85713 94.2861 10.8571V16.8571H96.7861V10.5714C96.7861 7.49998 94.6433 5.85713 92.1433 5.85713V5.85713ZM71.0004 5.85713C69.5718 5.85713 68.6433 6.71427 68.1433 7.42855L67.929 7.7857V3.07141H65.3576V11.6428C65.3576 15.2143 67.5718 17 70.429 17C73.7147 17 75.7147 14.5 75.7147 11.2857C75.7147 8.07141 73.6433 5.85713 71.0004 5.85713V5.85713ZM70.7147 14.8571C69.8576 14.8571 69.1433 14.6428 68.6433 14.0714C68.1433 13.4286 67.929 12.5 67.929 11.2143C67.929 9.49998 69.0004 8.07141 70.429 8.07141C71.2861 8.07141 72.0004 8.2857 72.429 8.85713C72.929 9.42855 73.1433 10.3571 73.1433 11.7143C73.1433 13.5 72.1433 14.8571 70.7147 14.8571V14.8571ZM80.929 5.85713C79.429 5.85713 78.429 6.2857 77.7147 6.7857V8.57141C78.6049 8.14016 79.5827 7.92017 80.5718 7.92855C81.3576 7.92855 82.0718 8.07141 82.5004 8.42855C82.929 8.71427 83.2147 9.2857 83.2147 10.0714V10.3571H82.1433C78.0718 10.3571 76.7147 11.7857 76.7147 13.6428C76.7147 15.5714 78.429 17 81.0004 17H81.6433C84.0718 17 85.7147 15.5 85.7147 13.2143V10.7143C85.7147 6.85713 83.5004 5.85713 81.0004 5.85713H80.929ZM83.1433 13.2143C83.1433 13.7857 83.0004 14.2857 82.7147 14.6428C82.3576 14.8571 81.929 15 81.2861 15C80.6433 15 80.1433 14.9286 79.8576 14.6428C79.429 14.4286 79.2147 14 79.2861 13.5714C79.2861 13.0714 79.429 12.7143 79.8576 12.4286C80.2861 12.2143 81.0004 12.0714 82.0718 12.0714H83.1433V13.2143Z" fill="#05BE50" />
        <path fill-rule="evenodd" clip-rule="evenodd" d="M2.71429 0C1.28571 0 0 1.35714 0 2.78571V20.1429H17.1429C18.6429 20.1429 19.8571 18.9286 19.8571 17.4286V0.0714286H2.71429V0ZM15.2857 14.5L4.71429 16.4286V5.71429L15.2857 3.71429V14.4286V14.5Z" fill="#0039A6" />
    </g>
    <defs>
        <clipPath id="clip0_845_61616">
            <rect width="109.286" height="20" fill="white" />
        </clipPath>
    </defs>
</svg>
